<svg xmlns="http://www.w3.org/2000/svg" viewBox="0 0 245.26 61.93"><defs><style>.a{fill:#f9ed23;}</style></defs><path class="a" d="M19.8,25.44c-.18.09-1.51.23-1.74,0l-.83.13c-.13-.13-.55-.09-.73-.09a1.15,1.15,0,0,0-.41,0c-.14-.14-.28.09-.46-.09-.18.13-.28.09-.41-.09l.5-.33h.37s.14,0,.23,0a.31.31,0,0,1,.18,0,2,2,0,0,0,.92-.18,5,5,0,0,0,1.14-.18,1.37,1.37,0,0,0,.51-.09H18.7a.29.29,0,0,1-.41-.05c-.64,0-1.38.18-2,.14a.31.31,0,0,1-.41-.14c-.28.14-.64.05-.92.18-.09,0-.41-.09-.41-.18s.05-.09.09-.14a4.41,4.41,0,0,0,.73,0c.23-.14.46-.09.69-.23a20.7,20.7,0,0,1,3.76-.28h.14a7.22,7.22,0,0,1,1.14-.41l.14.05.6-.33.36.1c.51-.28,1.1-.19,1.65-.42.1.1.28,0,.37,0l.73-.09a.33.33,0,0,0,.46-.09h.42a12.72,12.72,0,0,0,2.06-.14c.18,0,.23,0,.41-.09l.23.09a1.54,1.54,0,0,1,.78-.14c.14-.27.92-.23,1.15-.23-.19-.18.5-.14.54-.14.28,0,.46-.18.74-.18h1c1,0,2.29-.6,3.21-.6a2.13,2.13,0,0,1,.55.1c0,.27.27-.1.32-.14s.23,0,.23-.14,0-.23.18-.23a.49.49,0,0,1,.19-.41c0-.09,0-.28.13-.28a.69.69,0,0,1,.51.55l.73-.45s.05.45.14.45.05-.23.05-.23l.18-.41a.44.44,0,0,0,.09-.32c0-.18.05-.27.27-.27h.1c0-.37.36-.55.36-.92l.46-.73c.09,0,.28,0,.32-.14l.09.5-.13.05c-.55,0-.23,1-.23,1.51l-.09.19c0,.18.22.18.36.18h.37c0,.14.23.18.37.18,0,.23.13.37.36.37,1.61,0,3.21-.41,4.82-.46l-.23.37s-.19,0-.19,0a5.74,5.74,0,0,0,.6.09A.24.24,0,0,0,47,21l.18.18h1.33l-.23-.36s-.27,0-.27-.09.18-.1.23-.1a8.36,8.36,0,0,0,1,0c0-.23-.41-.19-.55-.14,0-.18.23-.18.37-.18s.69.09.69-.09l1-.28L51,20h.28c0-.18.27-.18.36-.18l9.58-.14c.32.42,1.47,0,1.47.28v0a1,1,0,0,1,.55.1c0,.09-.6.09-.69.09a.51.51,0,0,1-.36-.14H60s-.23,0-.23.09.32.09.37.09c1.19,0,1-.09,1.88.32.91,0,1.6.14,2.43.14l-.14.37a40.26,40.26,0,0,0-4.08.41c-.14.23-.69.09-.92.32-.27.05-1.46.37-1.46.64,0,.1.09.1.13.1l.23.18a7,7,0,0,1,1.38,0c0,.19-1.19.1-1.19.19a.63.63,0,0,0,.22.36c.05.14.33.28.33.42s-.33,0-.37,0c-.23,0-1.74-.18-1.74.19a21.54,21.54,0,0,0-3,.32c0,.09-.19.23-.19.32a.11.11,0,0,0,.1.09c2.15,0,4.4-.18,6.6-.23l.18.14c0-.09.05-.19.14-.19l1.24.05c0,.05,0,.18.09.18s.14-.13.18-.18l1.15-.05c.09.1.36.33.36,0a2,2,0,0,0,.92.14l.18.19c1.06-.23,2.16.45,2.66.32l0,.18c-.78,0-4.59-.28-5,.27A13.37,13.37,0,0,0,59,26a.73.73,0,0,0,.23.46l-.37.18c0-.37-.32-.14-.46,0l-.46-.18s-.14,0-.14.09-.91,0-1-.05c-.74.37-1,0-1.47,0a4.55,4.55,0,0,0-.87.37A1,1,0,0,0,54,27h.78c.09-.37,2.06-.23,2.38-.23a1.21,1.21,0,0,1,.69.23c0,.23-.78,0-.87.32-.82,0-2.06.23-2.75.23a4.48,4.48,0,0,1-1.6-.14c0-.13-.19-.18-.28-.18a.31.31,0,0,0-.32.18s-.09,0-.09.05.73.18.73.23a4,4,0,0,1-.82,0,21.41,21.41,0,0,1-2.75.42.73.73,0,0,1-.51.18,1.45,1.45,0,0,1-.82-.32l-.37.14s-.18,0-.18.09.27.23.36.27H47l-.32-.36-.27.41c-.1,0-.42,0-.42.09l.05.09h-.69c0,.14-.18.19-.32.19a14,14,0,0,0-2.57.73,1,1,0,0,1-.5-.18l-.78.18a.48.48,0,0,1-.18.41c0,.05,0,.09-.09.09s-.28,0-.28.14l-.55,1.19A7.38,7.38,0,0,0,38.69,34a1,1,0,0,0,.5.19c1,0,1.93-.23,2.93-.23.05-.14.23-.18.37-.18s.32.18.55.18c.73,0,1.47-.09,2.25-.09.09,0,.59,0,.59.18,0,0,.19,0,.19.14s-.33,0-.37,0a13.55,13.55,0,0,0-1.42.1l-.19.18.19.18c0,.23.18,0,.23-.09l.18.18a1.25,1.25,0,0,0,.28-.36l.22.18c.46,0,.92.14,1.29.14a3,3,0,0,0,.64-.09s0-.1.05-.1.18.14.23.19l.36.18a14.11,14.11,0,0,1,1.42.37c0,.32.37,0,.37.32l.37,0v.37l-.51-.09a10.74,10.74,0,0,1-2.43.36l-.32.28-1.1-.05a8.77,8.77,0,0,0,1,.23c.14,0,.83.09.83-.13v0l.27.18.1.19H48c.13-.28,1.37-.23,1.69-.23.14,0,.42,0,.42.23a10.47,10.47,0,0,1-2,.32c0,.32-2.1.41-2.43.41s-1.05.18-1.6.18c0,.37-1.56.09-1.56.37,0,0,.14,0,.19,0A13.87,13.87,0,0,0,44.69,38c0,.37,1.15,0,1.33,0s.6.18.92.13L47,38a1.7,1.7,0,0,1,.83-.09l0-.18.23.18,2.11,0c.05,0,.14,0,.14.1s.87.18,1,.23c0-.28.18-.14.27,0,.42,0,.87.18,1.29.18a.64.64,0,0,1,.5.14c.27,0,.6.36.73.55l-.5-.1-.41-.27-.64.14s0,.09,0,.09-.18-.09-.28-.18c-.87,0-1.88.18-2.79.22-.09,0-.37,0-.37.19-1,0-2.06.37-3.07.37h-.78a1.47,1.47,0,0,0,.46.18c0,.14.23.18.37.18s.36-.23.59-.23c.55,0,1.51,0,1.51.28,0,.09-.68.18-.77.23l.09.18c-.55,0-1.24.23-1.75.23l-.13.09a23.36,23.36,0,0,1-4,.64l-.37.19a28.63,28.63,0,0,0-5.64.82s0,.18,0,.18-.18-.13-.23-.18-.14.09-.14.18a1.58,1.58,0,0,0,.09.42l-.5.87c-.14,0-.14.27-.14.36a.59.59,0,0,0-.18.46l-.51.19-.22.41c0,.18-.14.27-.14.41v.09l-.14.37c0,.27-.18.27-.18.5a4.41,4.41,0,0,1-.78,1.24c-.32,0-.32.73-.32,1v.1a7,7,0,0,1-.78,1.19l.14.36h-.28l-.14.37-.27.28c-.05.09-.19.5-.28.5s0-.18,0-.23l.41-.92-.09-.55-.19-.18c-.09,0-.27.09-.27.23s-.28,0-.28.18.1.19.23.19.51,0,.51.09-.28,0-.32,0a6.15,6.15,0,0,0-.55,1c0,.19,0,.28.23.28l.32-.05a.59.59,0,0,0-.14.55l-.37.23a.66.66,0,0,1-.18.5,1.19,1.19,0,0,1-.51,1l-.09.23c0,.23-.23.36-.46.36,0-.23.19-.32.19-.55l-.51-.09-.36.28-.19.32,0-.14a1.82,1.82,0,0,0-.09.69c-.19.32-.42.64-.65,1l.14.32H27l-.09.28s-.46.64-.5.64-.05-.14-.05-.19l.37-.73v-.23l-.23.09v.14a6,6,0,0,1-.55.83c0,.09,0,.23.14.23l.27-.05a.85.85,0,0,0-.09.46l-.28.18a.48.48,0,0,1-.18.41,1.51,1.51,0,0,1-.27.74l-.14,0c-.05.28-.05.51-.41.51a.85.85,0,0,1,.09-.46l-.37-.09a12.63,12.63,0,0,0-1,1.28h0l-.23.41-.19.14c0,.37-1.32,1.47-1.51,2.38-.09,0-.14,0-.14.1s0,.18-.13.18l-.65.92c-.09,0-.09,0-.09-.14a11.07,11.07,0,0,1,.83-1.65.59.59,0,0,1,.14-.41l.73-1.93L22.23,60a10.67,10.67,0,0,0,.64-1l-.32-.14-.14.18c0-.23-.68.92-.73,1-.23,0-.41.37-.46.55a6.32,6.32,0,0,1-1.1,1.15c0,.09,0,.28-.14.32a3.35,3.35,0,0,0-.59.6,4.1,4.1,0,0,0-.23.73c-.09,0-.14,0-.14.09,0,.32-.32.05-.32.51l-.27.27.27-.73c0-.23.14-.41.14-.64v-.1l.27-.13v-.55l.14-.37.14-.05a3.3,3.3,0,0,0,.73-1.23.17.17,0,0,0,.05-.14c0-.09-.09-.09-.14-.09s-.73,1.19-.78,1.28l-.6.51c-.18.54-.59.82-.77,1.28v.37a3.54,3.54,0,0,0-1.2,1.65l-.27.09L16,66l-.14-.14-.23.14c-.27.55-.68,1-.91,1.6-.05,0-.14,0-.14-.09s.09-.18.14-.27c0-.32.5-.92.5-1.7l.23-.18a1.07,1.07,0,0,1,.14-.55l0-.83.28-.32c.09,0,.14,0,.14-.09s-.14-.23-.19-.28c0-.27.28-.36.28-.68s.14-1,.46-1a.47.47,0,0,1-.14-.36c.09-.09.37-1.19.5-1.42,0-.55.42-1.1.42-1.47l.22-.23c.05-.18.14-.92.37-.92H18c0-.13,0-.32.14-.41,0-.46.37-.36.37-.78l.09-.23c-.05,0,0,0,0,0V55.7l.33-.92c-.05-.73.5-1.33.5-1.79l.27-.27c.05-.23.19-1.1.46-1.1h.1c0-.28.36-.78.36-1,.28,0,.37-.55.37-.78l.36-.23v-.41l.14-.23c0-.19.14-.14.14-.37a5.89,5.89,0,0,0,.55-1.05c0-.23-.32,0-.32-.28,0-.46.55-.78.82-1.19a.53.53,0,0,1,.14-.37h-.5c-.23,0-.46.19-.69.28l-.41-.46.13-.05c.1,0,.1,0,.1-.13l1-.28.41.09c.5-.32.09-.73.46-.73h.18L23.7,44l-.46.14c-.18,0-1-.05-1,.18a2.22,2.22,0,0,1-.55.14.15.15,0,0,1-.14-.14v0h-.09c-.23,0,0,.32-.32.23a.52.52,0,0,1-.37.13l-.13,0c-.92.09-2.25.32-3.21.32-.09,0-.23-.05-.23-.19s.18-.18.27-.13l.19-.19.45.1,0-.33.28.1.73-.37-.46-.09a4.54,4.54,0,0,0-1.37.36c-.28,0-1.43,0-1.43.23,0,.05,0,.05.1.05l-.42.37v.09s0,.09.05.09a.36.36,0,0,0,.27-.18c1.2.23.51-.19,1.1-.19h.05a.61.61,0,0,1,.09.28c0,.09,0,.14-.14.09l-.13.18a8.51,8.51,0,0,0-1,0h-.09c0,.41-.46.37-.74.37-.09,0-.36,0-.36-.14,0-.46.5,0,.55-.32-.09,0-.28,0-.28-.09v-.09c-.14,0-.46-.05-.46-.23s.23-.23.28-.41c.18,0,.32-.05.5-.05s.42.09.6-.09a.26.26,0,0,1,.23-.28h.09l.32-.13H17l.37-.19c.09,0,.28,0,.37,0,.27,0,.32.09.36-.23l.42-.19c0-.09,0-.18.13-.18s.19,0,.23-.14c.14,0,.69.05.69-.18.23,0,.83.14,1-.14l.32,0,0-.32-.32-.32.55,0a1,1,0,0,0,.37-.18c0-.19-1.06.14-1.06-.14v0a4.23,4.23,0,0,1-1.05.37l-.32,0a.49.49,0,0,1-.32.13c-.83,0-.51.23-.92.23h0a.76.76,0,0,0-.45-.32,12.4,12.4,0,0,1-1.43.18c0,.14-.13.14-.22.14a1.92,1.92,0,0,1-1-.36l-.19.18-.32-.09-.23-.28c.1-.23.69-.32.92-.37L15,41l.28,0c.92,0,.78-.41,1.24-.41a1.36,1.36,0,0,0,.45,0c0-.09-.59-.18-.68-.18-.28,0-.23.41-.51.41a2,2,0,0,1-.5-.14c.09-.73,1.92-.78,2.38-1-.09,0-.32,0-.32-.18v0a.85.85,0,0,0-.46.09c-.23,0-.23.14-.41.14-.46,0-1,.05-1.42.05-.05.27-.05.36-.37.36l-.27,0-.09.18a4.57,4.57,0,0,1-1.56.27l-.46,0-.23.18c-.46-.14-.41,0-.64,0a.54.54,0,0,0-.51.19.4.4,0,0,0-.45.09c-.23-.09-.33-.19-.46.09a.85.85,0,0,0-.46.09c-.18-.05-.23,0-.41,0H9l-.32.18a3.45,3.45,0,0,0-.64,0c-.14,0-.18,0-.18-.18v-.1l.91-.22c.23,0,.83,0,.92-.19l.83-.18.23-.37.54-.09s.05.37.1.37,0-.37.13-.37a.71.71,0,0,1,.28.09c.64-.18,1.33-.14,1.92-.36.05-.14.05-.32.23-.32h.19c0-.33.36.13.41-.23.14,0,.32,0,.41-.14l.37-.23a4.12,4.12,0,0,0,.73-.05h.19c.82-.36,1.69-.5,2.56-.82l.55,0,.37-.13.46,0c.36-.09.59-.46,1-.46,0,0,.09,0,.09.05v0c.27,0,1.14-.14,1.24-.42a8.14,8.14,0,0,1,1-.13h.09l.14-.05.18-.23.19-.05a.45.45,0,0,0,.45-.13l.05,0h.6l.09,0,.18-.28c.28,0,1.38,0,1.38-.23.41,0,.18,0,.41-.23.14,0,.32,0,.32-.23s-.14-.45.23-.45.09-.92.46-.92a1.8,1.8,0,0,1,.32-.83c0-1,1.83-3,1.88-4L30.39,29l.32,0,.05-.05v-.23a2,2,0,0,0-.74.23,2,2,0,0,0-1.05.05l-.37-.1c-.23.1-.78.33-1,.14l-.78.14c-.28-.28-.5.05-.78.05-.09,0-.14,0-.18-.05a5.77,5.77,0,0,1-1.56.23c-.05,0-.18,0-.18-.05a.1.1,0,0,1,.09-.09h.36l.78-.41a1.66,1.66,0,0,0,.78-.14l.23.05.05-.19.23-.13.18.13a2.89,2.89,0,0,1,1.24,0l.23-.37a4.12,4.12,0,0,1-1.06,0l-.27,0a1.14,1.14,0,0,1-.55,0l-.32.09c-.14.18-.55-.14-.69-.19l-.51.23c0-.27-1.14,0-1.33,0l-.27.18-.41-.18c-.32.23-.74.09-1.06.27l-.36,0-.42-.32s0-.09-.09-.09-.18.22-.32,0a3.32,3.32,0,0,1-1.33.09c-.23-.27-.78.09-1.05.09a.32.32,0,0,1-.23-.09v-.27a.32.32,0,0,1,.23-.09.2.2,0,0,1,.14,0l.22.05.74-.28.36.05c.23-.23.56-.18.83-.32a.28.28,0,0,0,.37,0h.36a3.58,3.58,0,0,0,.65-.32s-.1,0-.14,0h-.14a.35.35,0,0,1-.41-.09l-.05-.28L21.4,26c-.13.14-.32.18-.41,0l-.41,0a.65.65,0,0,0-.41.05c-.14-.14-.28.14-.46,0l-.73.05c-.55-.28-1,0-1.56-.1-.05,0-.05,0-.05-.09s.55-.14.64-.14a10,10,0,0,0,1.06-.22c.09,0,.18.13.23.18.23-.14.5-.09.73-.23Zm-7.24,19.8c-.05,0-.09-.09-.09-.13s0-.32.18-.32.23.13.32.23A.61.61,0,0,1,12.56,45.24ZM13,45c0-.23.23-.42.37-.14l.46-.19a.83.83,0,0,1,.09.28c0,.14-.14.18-.28.18A3.63,3.63,0,0,1,13,45Zm2.34-.46L15,44.47l.23.36Zm.37-.14s-.19,0-.19.09.09.09.14.09Zm1.55,16.23-.18-.28C17.1,60.51,17.05,60.65,17.23,60.65Zm.23-1.24c0,.09.05.18.14.18l0-.09c0-.09-.1-.14-.19-.14Zm1-20s-.14,0-.14.1.14.09.19.09Zm1.06,4.27c0-.1,0-.14-.1-.14s0,.09,0,.14.09,0,.14,0ZM20,65.37c0-.32.19-.46.51-.46C20.49,65.28,20.31,65.37,20,65.37Zm.37-39.74.64.13a.5.5,0,0,1,.55-.13,0,0,0,0,0,.05-.05c0-.09-.32-.14-.37-.14s-.32,0-.46.09l-.45-.13-.28.18C20.12,25.67,20.26,25.76,20.35,25.63Zm0,17.83a.15.15,0,0,0-.14-.14h-.05a.2.2,0,0,0,.19.18Zm.27-1.33a.63.63,0,0,1-.41-.19c0-.09,0-.18.14-.18a.77.77,0,0,1,.41.23A.13.13,0,0,1,20.58,42.13ZM21,57.67c.28-.14.37-.23.37-.55l-.09,0A1.72,1.72,0,0,0,21,57.67Zm.46-.74c.14,0,.28,0,.32-.18Zm.37-14.57c-.05,0-.19,0-.19.09s.1.09.14.09Zm.18-1.1s0,0,0,0-.14,0-.14.09.09.09.14.09A.17.17,0,0,0,22,41.26Zm.6-12.65c0,.18-.42.22-.55.22v-.32a1.56,1.56,0,0,0,.46-.09A.41.41,0,0,1,22.6,28.61ZM23,25c-.09.05-.27.14-.36.05l-.46.28-.05.13h.42l.32-.23.41.14.14-.23A.37.37,0,0,1,23,25ZM22.23,41c0,.23.14.27.32.32C22.46,41.21,22.37,41.07,22.23,41Zm.23,14V55l-.14,0A.15.15,0,0,0,22.46,55.05Zm.09-.23c.05,0,.05-.09.05-.13l-.14,0S22.46,54.82,22.55,54.82Zm.23.32a.53.53,0,0,0-.27.28,1,1,0,0,1,.36-.23Zm0-.82s0,0,0,0,0,0,0,0h0S22.78,54.32,22.83,54.32Zm.77-25.76a.09.09,0,0,1-.09.09c.14.14.32.05.42.23s-.14.23-.23.32c-.23-.14-.42.09-.6.09s0-.32,0-.41l.36-.18c-.18-.19-.18-.19,0-.32C23.51,28.42,23.6,28.47,23.6,28.56Zm-.54,29.2c0,.09.13.23.18.27l.14-.36h-.19S23.06,57.67,23.06,57.76Zm.22-4.13s0,0,0-.09,0-.09,0-.09,0,0-.09,0S23.24,53.63,23.28,53.63Zm0-1.33a1,1,0,0,0,.18.37v-.09l.23-.41c.19-.05.28-.19.46-.23,0-.19.18-.28.18-.51L24,51.25c0,.37-.32.5-.32.87v.05C23.51,52.17,23.51,52.3,23.33,52.3Zm.18,4.5-.13.32s0,.23.09.23,0-.14,0-.14L23.7,57l.13-.32v-.22C23.56,56.52,23.74,56.75,23.51,56.8Zm.14-31.63a.11.11,0,0,0,.09.09h.05l-.09-.18C23.65,25.08,23.65,25.12,23.65,25.17Zm.55,27.55h.32s.09,0,.09,0-.18-.14-.23-.18Zm.23-1.52c.5,0,.55-.73.55-1.14,0-.05,0-.14-.05-.14l0,0Zm3-21.49a.69.69,0,0,1-.51.09c-.18.09-.41.09-.59.18h-.69l-.19-.18.19-.23c.18-.09.36,0,.55-.09a.48.48,0,0,0,.55-.05l.27.05.37-.23Zm-1.93,24.7h.14c0-.09-.14-.09-.19-.09S25.48,54.41,25.53,54.41ZM25.67,49s0-.05,0-.09v0l-.18,0S25.58,49,25.67,49Zm.14-.32c.09,0,.09-.1.09-.14a.1.1,0,0,0-.09-.09s0,0-.1,0S25.76,48.64,25.81,48.64Zm0,4.53s0,0,.09,0l0-.05a0,0,0,0,0,0,.05Zm.41-5.08s0-.1,0-.14l-.14-.05C26.08,48,26.08,48.09,26.17,48.09Zm.28,4.17a.63.63,0,0,0,.09.32l.14,0c-.05-.14-.1-.41.13-.41,0,0,0-.18-.09-.18s-.09.13-.09.18S26.45,52.17,26.45,52.26Zm.23-5c.09,0,.09-.1.09-.14a.1.1,0,0,0-.09-.09c-.05,0-.05,0-.1,0S26.63,47.22,26.68,47.22Zm.45,3.62c0,.09,0,.18-.13.18l-.19.41s.1.28.14.28,0-.37.18-.37h.05l.18-.41c0-.19.14-.28.14-.46l-.14.18C27.23,50.65,27.13,50.7,27.13,50.84ZM26.86,56H27a.26.26,0,0,1-.05-.18Zm.18-.41.28-.23v0Zm.64-28a.11.11,0,0,0,.1.09s0-.05,0-.09a.09.09,0,0,0-.09-.09A.14.14,0,0,0,27.68,27.6Zm.14,18.52h.41c.05,0,.1,0,.1-.1a.42.42,0,0,0-.28-.27l0,0v.05C27.87,45.84,27.82,46,27.82,46.12ZM28,27.73c0,.1.09.14.13.19l.23-.14-.18-.18C28.14,27.64,28,27.69,28,27.73Zm1.23,1.52s0,.09,0,.09A.36.36,0,0,1,29,29.2l-.23.05s-.09,0-.09,0c0-.19.32-.19.46-.28A.61.61,0,0,1,29.24,29.25Zm.42-2.07-.23.05-.32.14-.19.46.37-.1v-.36Zm-.19,21h.09c0-.09-.09-.14-.18-.14S29.38,48.18,29.47,48.18Zm.19-1c.09,0,.09-.09.09-.14a.11.11,0,0,0-.09-.09c-.05,0-.05.05-.1.05S29.61,47.17,29.66,47.17Zm.22-.37c.05,0,.05,0,.05-.09s-.05-.09-.14-.09h0C29.75,46.71,29.79,46.8,29.88,46.8Zm-.09,3.53c.05,0,.05,0,.05-.09S29.79,50.29,29.79,50.33Zm1.1-22.46-.55,0c-.09,0-.18,0-.18.09s.23.27.37.27a.86.86,0,0,0,.41-.18c0,.09.23.09.23,0h.09ZM31,49.92c0,.09.09.14.18.14L31,49.74Zm.18-.55c0,.05,0,.18.1.18s.23-.18.27-.27.14-.23.14-.37v-.09s0-.14,0-.14-.14.32-.14.37Zm.14-2.2a1.73,1.73,0,0,0,.32.64c.14,0,.19-.14.19-.23a.31.31,0,0,0,.18-.32,1.14,1.14,0,0,0,.32-.37c0-.18.18-.27.18-.45l.37-.37c0-.14.05-.18.18-.18s.19,0,.19-.14c0-.41.46-.92.46-1.28a6.1,6.1,0,0,0,.68-1.15.65.65,0,0,1,.19-.51l-.23-.32a.27.27,0,0,0-.28.28s0,.23,0,.23.14-.32.14-.14v0l-.37.27c0-.27-.14,0-.18.14s.36.09.36.14-.14,0-.14,0l-.18.19-.23-.14-.14-.32a1.24,1.24,0,0,1-.36.32,2.21,2.21,0,0,0-.23.78.15.15,0,0,0,.14.14c.32,0,.27-.1.27-.37,0,0,0-.14.05-.14a2.63,2.63,0,0,1,.13.32c0,.23-.18.32-.18.55a.85.85,0,0,1-.41.19c-.09,0-.14-.1-.14-.19l-.37.32c0,.19-.13.28-.13.46s-.14.23-.14.46l-.32.32s0,.32.09.32.37-.32.41,0v.13C32,46.89,31.35,46.85,31.35,47.17Zm.32,1s0,0,0,0a.11.11,0,0,0-.09-.1h-.09A.14.14,0,0,0,31.67,48.13Zm2.94-5s0,0,0-.09S34.61,43.14,34.61,43.18Zm3.07-9H38l.09-.32-.59.05C37.45,34.06,37.49,34.15,37.68,34.15Zm.09-.64c.18,0,.32.14.55.14l.5-1.38c0-.13-.09-.18-.23-.18l-.13,0A3.48,3.48,0,0,0,37.77,33.51Zm1.56-3.3c0,.14-.32.92-.32,1v.5l.41-.18L40.2,30l-.46-.09Zm5-1.79c-.18,0-.64-.18-.64.14l-.28.37h.32l.23-.19c.55,0,1-.18,1.56-.18l-.37-.37-.59,0C44.6,28.38,44.46,28.42,44.37,28.42ZM43.68,35c.09,0,.09-.09.09-.14l-.18-.05C43.59,34.84,43.64,35,43.68,35Zm0-13.57c0,.18.59.18.68.18s.37,0,.37-.23c.05,0,.18,0,.18-.09a1.24,1.24,0,0,0-.36-.27C44.69,21.36,43.64,21,43.64,21.41Zm.68,18.47s0,0,0,0a.11.11,0,0,0-.09-.1h-.09A.14.14,0,0,0,44.32,39.88Zm1.2-14.25c.13,0,.27-.05.27-.19h-.5Zm0-4.45a.32.32,0,0,1,.32.18,1.59,1.59,0,0,0,.78-.27c0-.14,0-.23-.19-.23a.78.78,0,0,0-.36.14l-.69-.14Zm4.72,6.46c0-.09-.14-.18-.19-.23a7.56,7.56,0,0,1-1,.23c-.23,0-1.19-.18-1.19.32C48.27,28,50.24,27.92,50.24,27.64Zm-1.42-2.11s.18,0,.18,0-.46-.18-.55-.18-.18,0-.18.09A2.59,2.59,0,0,0,48.82,25.53Zm.36-.73.28.18c.27,0,1.92.1,1.92-.18Zm.23-3.9c0,.1.19.19.28.19a4.09,4.09,0,0,0,1.51-.23c0-.09-.92-.23-1.05-.28S49.41,20.72,49.41,20.9Zm1.93-.22c0,.18.13.22.32.22.55,0,2.15,0,2.15-.22h-.09l-.18-.19h-.32s-.14-.09-.19-.09H51.34Zm1.33,4.08h.13c0-.14-.18-.28-.32-.33C52.48,24.62,52.44,24.76,52.67,24.76Zm2.15-1.43c.09,0,.23,0,.23-.13a.34.34,0,0,0-.14-.23Zm3.67-2.88h.23c0-.1-.1-.14-.19-.14H58.4C58.4,20.4,58.4,20.45,58.49,20.45Zm.78.09-.37-.05C58.9,20.68,59.18,20.58,59.27,20.54Z" transform="translate(-7.84 -9.03)"/><path class="a" d="M88.37,27.87a2,2,0,0,1-.46.46c-.14,0-.27.05-.27.23v.14h-.23c0,.09-.28.13-.28.27v.14l.32-.09.6,0c0,.42-.55.46-.55.78v.05a2.21,2.21,0,0,0-.73.73c-.51-.09-.42.23-.42.6l-.13.23c0,.64-.55.18-.65.78-.5,0-1.1.55-1.55.73a1.08,1.08,0,0,1-.65.69c0,.5-.91.32-.91.59s.23.19.18.42a1.22,1.22,0,0,1-.69.13l-.41.14c0-.27-.27,0-.37.09l0-.36A10.87,10.87,0,0,0,80,35l-.28.55a3,3,0,0,0-1,1l.41-.1.41-.27c0-.05,0-.09,0-.09s.18.13.18.18-.09.14-.18.14l-.23.27c0,.14,0,.6-.14.6s-.32,0-.41.14-.46.18-.73.23l0,.45-.32.28-.46.14c0,.18-.14.27-.32.27h0l-.23.37c-.42,0-1.2-.09-1.2.5l-.23.32.05.6-.46.18a1.52,1.52,0,0,1-.32.46c.32.09-.09,1.06.55,1.06h0c0,.22,0,1,.36,1,0,.19-.18.46.14.51,0,.23.23.23.23.46s-.23.23-.23.36a.1.1,0,0,0,.09.09c.14,0,.19.05.19.19V45l.27.27a.3.3,0,0,0,.19.32c0,.19.13.19.27.19.69,0,.46.32.46,1l.37.55c.13,0,.18.23.18.36a.48.48,0,0,1,.14.42c0,.09,0,.23-.1.23h-.22s0,.41,0,.41.23-.23.51,0l.18.42.18.18v.46l.19.27c0,.14-.1.41.09.41h.14l.27.88.14,0c0,.18-.19.41.09.46l0,.18c.51.05.55.28.55.74,0,0,.14,0,.14.09a.48.48,0,0,1-.18.32c.09,0,.14.23.18.32s.14.18.28.18c.64,0,.46.14.46.92a1.34,1.34,0,0,1,.32.5.32.32,0,0,1,.18.32c.14.05.18.23.18.37s0,.23-.09.23h-.23c0,.05,0,.41.09.41s.19-.23.46-.09l.14.41.18.19,0,.41.18.23c0,.09-.09.41.09.41l.1,0a7.2,7.2,0,0,0,.55,1.42c.45,0,.55.27.55.68.09,0,.13,0,.13.1a.54.54,0,0,1-.41.41c-.14,0-.18-.09-.18-.19L82.73,60a.16.16,0,0,0-.18.18s.09.14.14.18c.09.23.32.1.41.33.18,0,.18.23.18.36v.14a1.75,1.75,0,0,0,.64.46.59.59,0,0,0,.28.37l-.18.45h0c.23,0-.09.09-.14.09s-.27,0-.27-.09v0l-.46-.78c-.14,0-.32-.41-.69-.51L82.09,61l-.18-.28a1.76,1.76,0,0,1-.74-.69c0-.32-.55-.23-.55-.64l-.45-.59a.26.26,0,0,0-.19-.32,9.54,9.54,0,0,0-.64-1l-.46-.09a1.85,1.85,0,0,1,.41.83c-.18,0,0,.23,0,.27a8.16,8.16,0,0,0,.19,1.1l.18.32c0,.51.14,1.06.14,1.61l.37.18c-.37.5.27.14.27.69l0,.27c.23,0,.19.32.14.46l.19.37c-.42,0,.41.91.41,1.19.14-.05.18.14.18.23s.51.55.51.82c0,.1-.1.14-.19.14l-.27-.18c0-.28-.92-.74-.92-.83,0-.36-.32-.5-.55-.73l0-.41-.19,0-.18-.18,0-.46-.45-.18-.74-1.38a.66.66,0,0,0-.18-.5c-.18,0-.18.32-.18.41l.13.23c0,.32,0,.37.23.55,0,.18,0,.55.32.55h0l.18,1,.19.28.32.18c0,.23.13.82.41.87l-.14.32c-.09,0-.23,0-.23.09,0,.55.37.78.37,1.19v.05a7.72,7.72,0,0,1,1,1.93l.41.18a.34.34,0,0,0,.23.32c0,.32.27.37.27.69.37,0,.51.41.55.69.19,0,.23.13.23.32,0,0,0,.18-.09.18s-.78-.73-.87-1c-.78-.6-2.2-2.52-2.93-2.75l-.23-.42-.32-.27c0-.09,0-.28-.14-.28l-.37-.64a.25.25,0,0,0-.23-.27h-.09L77,65.05c-.18,0-.18-.19-.18-.32v-.14l-.5-.28A2.06,2.06,0,0,0,76,63.4c-.32,0-.46-.37-.46-.6l-.32-.6c-.23,0-.32-.5-.37-.68-.27,0-.36,0-.36-.28L74.34,61c0-.37-.32-.51-.32-.87l-.23-.42-.18-.09,0-.46c-.42,0-.28-.32-.55-.5a7.06,7.06,0,0,1-.55-1.06c-.1,0-.19-.13-.19-.22L72,57.16a2.32,2.32,0,0,0-.28-1c-.32,0-.46-.46-.46-.73l-.36-.65c-.23,0-.32-.55-.32-.73-.78,0-.19-.5-.6-.59,0-.46-.32-.51-.32-.88v-.09l-.23-.46L69.26,52l0-.5c-.5,0-.27-.37-.55-.55a1.78,1.78,0,0,1-.41-1L68,49.69V49l-.37-.23v-.45l-.23-.14-.36.09-.23.41c-.28,0-.64.37-.83.6l-.18-.05c0-.36,0-.59.37-.69,0,0,.36-.13.36-.18s-.18,0-.23,0a.64.64,0,0,1-.5.18s0,.09,0,.09c-.23,0-.55-.32-.73-.46s-.14,0-.14-.09.55-.55.69-.64a.17.17,0,0,0-.18-.18c-.51,0-1.47.73-1.84,1l.14.5s.23,0,.23,0a.44.44,0,0,1-.23.32.63.63,0,0,0-.69.59l-.36,1c.13.09.68.13.68.23s-.09.13-.13.18l-.42,0v.36c.05.09.32.51.05.51h-.05l-.36.73a2.53,2.53,0,0,0-.69.73l-.78.37c0,.46-.5.46-.55.83-.46-.23-.41.13-.5.5l-.74.55a.37.37,0,0,1-.36-.28.26.26,0,0,1,.27-.23h.05s1.23-1.19,1.23-1.46c0-.09-.09-.14-.18-.14l-.14.51c-.23.13-1,.45-1,.77-.23.23-.69.83-1,.83l.23.18c.18,0,.28.05.28.23v.23l-.83.6c-.27,0-.27,0-.32-.28,0,0,0-.13-.09-.13a.31.31,0,0,0-.23.18l.18.36-.23.19-.59,0v.28l-.19.09a.16.16,0,0,1-.18.18l-.14,0a.37.37,0,0,0-.18.32c0,.5-.37.37-.73.6l-.19.18.19.14v.27c-.23,0-.46,0-.64,0s-.33,0-.33-.19l.37-.18-.18-.27c0-.1,0-.28-.14-.33l-.05-.59c.14,0,.37,0,.37-.19l.18-.41-.13-.5-.42-.28c0-.09,0-.18-.13-.18s-.23,0-.23-.18L53.35,56v.37c-.37,0-.87-.09-.87.41v.14a8.87,8.87,0,0,0-1.56,1c0-.5.37-1,.41-1.6a.3.3,0,0,0,.37-.28c.37.14.6-.41.6-.73L53,54.6c0-.05-.09-.42-.13-.42-.28,0-.19.55-.42.74,0,.45-.45.5-.77.5a5,5,0,0,1-1.11,1.1c-.18,0-.55-.14-.55.14l-.68.69c-.19-.05-.37,0-.37.22l-.37.33-.41.13c0,.09,0,.28-.09.28l-.28-.05-.23.19c-.32,0-.32.09-.32.36s-.78,0-.78.42a.52.52,0,0,1-.13.36l-.28.41a.3.3,0,0,1-.32.37c-.37,0-.46-.23-.64-.46,0-.23.09-.41.32-.41,0-.37.73-1.38.73-1.7a.2.2,0,0,1,.23-.23h.09a.75.75,0,0,1,.33-.5c.32,0-.1-.37.27-.41,0,0,0-.18-.09-.18s-.23.22-.23.32v.09c-.28,0-.73.09-.78.41l-.37.27c-.23,0-.32-.22-.32-.45,0-.46.51,0,.55-.78l.55-.74c0-.36.32-.32.32-.64a.68.68,0,0,1,.23-.46c0-.13,0-.32.19-.36.13-.28.23-.6.59-.6l.55-.82a.32.32,0,0,1,.19-.33c-.05-.18.18-.18.27-.18H49c.14-.18.23-.78.37-.78l.23,0c0-.46.55-.55.55-.87l.18-.42.37-.32c.23,0,.23-.18.45-.23l.23-.18-.13-.32s.09-.09.13-.09c.23,0,.19,0,.23-.28.28,0,.74.1.74-.32l.55-.73,1-.32c0-1.51.64-.64.64-1.15v-.09l.37-.32c.78,0,.82-.5,1-1.1l.51-.14a1.3,1.3,0,0,1,.73-.59c0-.14,0-.28.18-.28h.23c0-.32,0-.37.32-.37L58,43l.23-.18,0-.41.37-.18c.09,0,.32,0,.32-.1l-.05-.36c.1,0,.37-.05.37-.19.18,0,.23-.18.23-.36v0c.27-.23.55-.37.55-.78v-.09l.37-.09a3,3,0,0,0,.78-.69c0-.14,0-.27.18-.27l.23,0c.27-.18.78-.55.87-.87s.14-.23.27-.23h.09l.28-.27.05-.51a2.8,2.8,0,0,0-.46-.73.57.57,0,0,0-.23-.51l0-.68a8.8,8.8,0,0,1-.73-3c0-.5-.41-.36-.41-.82-.05-.05-.18-.1-.18-.19s0,0,.09,0h.09A8.83,8.83,0,0,1,61.05,30c0-.1,0-.74.14-.74s.14.14.18.19.09,0,.09-.05a.58.58,0,0,0-.18-.32c.51-.6,0-.28,0-.6s.22-.73-.1-.78c-.09-.5-.59-1.69-.59-2.06V24.39a.61.61,0,0,0,.18-.46l-.14-.37c0-.23.14-.36.14-.55l-.14-.32c.09,0,.19,0,.19-.13s-.05-.28.13-.28c0-.14,0-.27.19-.27h.23a.4.4,0,0,1,.23-.37c.23,0,.45.18.68.18,0-.14.14-.27.28-.27l.14,0c-.14.14,0,.23.13.23l.19-.23c0-.46,1.51-.59,1.83-.59,0,.32.23.5.23.82l.14.32c0,.05,0,.19.09.19s.18-.1.27-.14l0-1.38c0-.13,0-1.1.18-1.1A5.36,5.36,0,0,1,66,20.86l.36.41v.51l.14.32.14.09,0,.41c.14.18.37.64.65.64.09,0,.09-.09.09-.14-.19-.09-.23-.54-.14-.54s.14.22.14.27c1.79,0,1.88.78,1.88,2.48l.27.36a9,9,0,0,1,.23,1.1v.09l.23.46c0,.05,0,.46.14.46,0,.55.32,1.15.32,1.51v.55l.18.14a1.31,1.31,0,0,0,.28.55A.51.51,0,0,0,71,31c0,.1,0,.33.14.33l.23-.05.37-.41a.49.49,0,0,0,.23-.42s0-.13,0-.13.23.13.32.23a.51.51,0,0,0,.51-.37l.36-.14c.1,0,.19,0,.19-.14s0-.22.18-.22a.55.55,0,0,1,.23-.46c.18,0,.37,0,.37-.23h.46l.13-.19c.28,0,.55-.45.69-.68.05.09.18.23.28.23s.09-.1.09-.14v-.09l.13-.09c.05-.19,0-.51.23-.51l.23.05.32-.32c.37-.05.55-.55.92-.55a2.9,2.9,0,0,1,1.15-.55,3.44,3.44,0,0,1,1.1-.74l.27-.46c.32.05.37-.13.6-.13h.09c0-.19-.09-.37.18-.37-.13-.18.19-.18.19-.46,0,0,0-.09,0-.09s.19.14.23.18h0c0-.18.09-.55.32-.55.46,0,.46-.23.73-.55h.14l.23-.18h.09c.05-.09-.09-.32.14-.32s.41.18.41-.05l.41-.27v-.05h.09l.23-.32h.09l.6-.37c.28,0,.46-.45.73-.45a2.35,2.35,0,0,1,.92-.46,2.33,2.33,0,0,1,.92-.55l.18-.41c.23,0,.32-.1.51-.1h.09l.13-.27.28-.18c0-.19.14-.55.37-.55s.27,0,.32-.14l.27-.32.37-.14c0-.09,0-.23.09-.23s1-.37,1-.6a3.4,3.4,0,0,0,.78-.41l.55-.14a3.4,3.4,0,0,1,1.1-.73h0v.05c.36,0,.64-.37,1-.46,0-.18,0-.23.23-.23s.18,0,.18-.14a2.14,2.14,0,0,1,.92-.64l.23-.23h.37c.13-.14.22-.32.45-.27l.28-.1.27.05h.1s-.1,0-.1,0V14l.19-.13c0-.1.23-.1.32-.1A2.52,2.52,0,0,1,99.37,13a1,1,0,0,1,.6-.32s.18,0,.18.09-.37.32-.46.41l-.32.05-.09.32a1.57,1.57,0,0,0-.87.41.82.82,0,0,1-.32.46c-.6,0-.64.64-1.33.78l-.6.55a.32.32,0,0,1-.27.14H95.8v.46l-.28.09-.41.55h0c0,.09,0,.23-.13.23h-.19l-.46.55c-.18,0-.45.18-.45.41l-.55.55c0,.18-.14.23-.33.23h-.13a.4.4,0,0,0-.14.27.11.11,0,0,0,.09.1,1.5,1.5,0,0,0,.69-.6c0-.14,0-.23.18-.23s1.42-.5,1.84-.59c.09.13.87-.23,1-.33l.23-.22a1.7,1.7,0,0,0,.64-.33l.46-.09v.42l-.28.13a.21.21,0,0,1-.13.09c-.19,0-.19-.13-.19.19a.54.54,0,0,0-.36.09c0,.37-.32.32-.6.37v.27l-.55.23s-.23,0-.23.09.28.23.28.46l.13.37c-.13-.05-.36,0-.36.18s0,.23-.19.23h0a1.53,1.53,0,0,1-.6.46c0,.18-.27.27-.46.27L94,21l-.18.28s-.14-.05-.14,0,.14.14.19.19c.5-.14,1-.78,1.51-1a2.41,2.41,0,0,1,.59-.09c.1,0,.14,0,.14.09,0,.27-1.14,1.14-1.33,1.24-.18-.05-.46,0-.5.23l-.19.27c-.13,0-.27,0-.27.18v.1c-.18,0-.23.13-.41.13l-.28.32,0,.09.5-.27.46.05c0,.32-.41.36-.41.64v0l-.32.19-.28.36-.32.19v.27l-.14.23c0,.46-.41.18-.5.6-.37,0-.92.45-1.24.59a.74.74,0,0,1-.5.55c0,.23-.37.32-.55.37l-.19.14c0,.09,0,.27.14.32a1.1,1.1,0,0,1-.55.09l-.32.14v-.05l-.14.14c0,.14-.23.18-.36.18ZM57.29,55.1c0,.32-.64,1.1-.78,1.28.46,0,.23-.36.55-.41a1.45,1.45,0,0,0,.6-.69l0-.46A.3.3,0,0,1,57.29,55.1Zm.6,1.15c.09,0,.09-.1.09-.14a.1.1,0,0,0-.09-.09s0,0-.09,0S57.84,56.25,57.89,56.25Zm1-2.39-.14.19c-.46,0-.28.41-.5.41s-.28,0-.28.14.18.36.32.36.05,0,.05-.09v0c.13-.13,1-.91,1-1s-.14-.05-.19-.05l-.27-.18.23.18Zm.68-.27c.05,0,.05-.05.05-.09v0l-.18-.05C59.45,53.5,59.49,53.59,59.58,53.59Zm.51-.6.27,0c.1,0,.1-.14.1-.23s.13-.19.13-.28l.69-.36.28-.55c.09,0,.18,0,.18-.14a.67.67,0,0,0-.18-.41,13,13,0,0,0-.78,1.1l-.32.5C60.27,52.62,60.13,52.81,60.09,53Zm.59.28s0,.09,0,.09v-.14l.32-.23c0-.05,0-.09,0-.09S61,53,61,53,60.68,53.08,60.68,53.27Zm.56-24.62c0,.09-.05.18-.14.18s-.23-.09-.23-.18,0-.18.09-.18.18.09.28.14Zm.64,1.74c0-.09-.09-.27-.23-.27s-.19,0-.19,0,.19.05.19.05Zm.5,21.46c-.23,0-.41.32-.55.5-.09,0-.27,0-.27.14s0,.13.09.13.09-.09.09-.13A3.88,3.88,0,0,1,62.38,51.85Zm-.64-20.72c.09,0,.09-.1.09-.14l-.18,0S61.69,31.13,61.74,31.13Zm.18.68H62a.18.18,0,0,0-.18-.13S61.83,31.81,61.92,31.81ZM62,50.42c.05,0,.1-.09.1-.13l-.23,0C61.88,50.33,61.92,50.42,62,50.42Zm.1-.64a1.7,1.7,0,0,0,.5.09c.09,0,.14,0,.14-.13s-.23-.46-.37-.46A1.25,1.25,0,0,0,62.11,49.78Zm.22-17v-.09l-.18-.37A1.47,1.47,0,0,0,62.33,32.82Zm.14.51h.14l-.28-.28C62.33,33.14,62.33,33.33,62.47,33.33Zm0,18.52.13-.1a.1.1,0,0,0-.09-.09S62.43,51.8,62.43,51.85Zm3.16-2.11-.46.13-.23.32-.23.1,0,.32s0,.13,0,.13-.23-.13-.27-.18l-.42.14c0,.32-.41,1-.78,1,0,0-.18,0-.18-.09,0-.32.78-.6.78-.87s-.37,0-.37-.23a1.81,1.81,0,0,1,.42-.78c.27,0,.09-.18.32-.18l.59-.51c.23,0,.46-.27.64-.27s.1.09.1.14a.79.79,0,0,1-.1.32c.28,0,.28.18.51.18C65.82,49.55,65.59,49.55,65.59,49.74Zm0-26.91c0-.09-.09-.14-.18-.14S65.45,22.78,65.54,22.83Zm0,25.26.41.13a2.8,2.8,0,0,1,.74-.91l-.42-.05C66.32,47.31,65.59,48,65.59,48.09Zm1.24.09s0-.09,0-.14,0-.09,0-.09a.14.14,0,0,0-.09,0S66.74,48.18,66.83,48.18Zm5.77.5c.05,0,.05,0,.05-.09l-.19-.09S72.51,48.68,72.6,48.68ZM73,50.29s0,.13.09.13a.15.15,0,0,0,.14-.13l-.23,0Zm.27.68c.1,0,.1-.09.1-.13l-.19-.05C73.15,50.84,73.2,51,73.24,51Zm-.09,1.24c0,.14.09.14.19.14a.47.47,0,0,0-.19-.32Zm.28-.73a.11.11,0,0,0,.09-.09.1.1,0,0,0-.09-.09.19.19,0,0,1-.09,0S73.38,51.48,73.43,51.48Zm.09.55.09-.28s0,0-.09,0h0A.72.72,0,0,0,73.52,52ZM74,41.16V40.8h-.41C73.57,41.16,73.66,41.12,74,41.16Zm-.23-1.64c0,.13.14.13.23.13l.36,0c.1-.09.37-.28.37-.42s-.09,0-.09,0a.91.91,0,0,0-.46-.14C73.93,39,73.75,39.29,73.75,39.52Zm.46,3.2s.09-.09.09-.13,0-.05,0-.05a.15.15,0,0,0-.13.05S74.12,42.72,74.21,42.72Zm.23.69c.09,0,.09-.09.09-.14l-.19,0S74.39,43.41,74.44,43.41Zm.13-3.25s.14-.1.23-.1,0-.18-.13-.18S74.57,40.06,74.57,40.16Zm.51,4.63-.28-.32C74.85,44.69,74.8,44.79,75.08,44.79Zm.41-6.6c0,.13.09.13.18.13l.37-.55c.09,0,.23,0,.23-.13a.82.82,0,0,0-.14-.37A6.25,6.25,0,0,0,75.49,38.19Zm1.05-1.1a1.85,1.85,0,0,0,.1.5h.45c0,.09,0,.23-.13.23h0a2.3,2.3,0,0,0-.59.78l.27-.09a.33.33,0,0,0,.37-.32c.32,0,.32-.1.32-.42l.41-.27a.35.35,0,0,1-.46-.23,3.61,3.61,0,0,0,1-.18c0-.23-.41-.88,0-.88.05,0,.18,0,.18-.09s-.18-.41-.32-.41-.09.09-.09.14c-.18.13-.59.5-.59.73s.22.14.22.28-.32,0-.36,0c0-.27-.37-.18-.37.05C76.77,36.9,76.54,36.9,76.54,37.09Zm.23,11.09c.1,0,.1,0,.1-.09s-.1-.1-.14-.1h-.09C76.64,48.09,76.68,48.18,76.77,48.18Zm.32.69s.1,0,.14,0,0-.09-.14-.09h0A.2.2,0,0,0,77.09,48.87Zm.19,9.67h0l-.13-.09A.1.1,0,0,0,77.28,58.54Zm0,1.19c0,.14.09.14.19.14a.47.47,0,0,0-.19-.32Zm.19-.83a.1.1,0,0,0,.09.1s.09,0,.09,0l-.18-.09Zm.45.74-.32-.41C77.6,59.5,77.55,59.64,77.87,59.64Zm1-23.93c.09,0,.09-.09.09-.14l-.18,0S78.84,35.71,78.88,35.71Zm.19,29.15a.85.85,0,0,0-.19-.32C78.88,64.68,78.88,64.86,79.07,64.86Zm1-29h0s-.14,0-.14-.05.28-.27.42-.27c0-.28.23-.19.41-.19,0-.09.09-.13.18-.13H81C81,35.76,80.35,35.62,80,35.85Zm.5,20s0-.05,0-.09l-.19,0A.15.15,0,0,0,80.53,55.88Zm.28.6s.09,0,.14,0,0-.09-.14-.09h0A.17.17,0,0,0,80.81,56.48Zm1.65-22.69v-.37l-.32,0C82.14,33.79,82.14,33.79,82.46,33.79Zm.18-1s.09.23.18.23a.11.11,0,0,0,.1-.1.22.22,0,0,0,.32-.18v0l-.37-.13Zm1.28-1.24s0-.05,0-.09V31.4l-.18,0S83.83,31.54,83.92,31.54Zm5.87-5.69,0,.19h.09L90,26c.14,0,.28,0,.28-.14v0L90,25.67Zm.92-5.27a0,0,0,0,0,0,0l-.18-.05C90.62,20.54,90.66,20.58,90.71,20.58Zm.14,4.27v-.09l-.14-.05A.14.14,0,0,0,90.85,24.85Zm.32-4.45v-.09l.13-.18L91,20.08C91,20.13,91.08,20.4,91.17,20.4Zm.5-.46c.09,0,.09-.09.09-.13h-.14Z" transform="translate(-7.84 -9.03)"/><path class="a" d="M108.53,54.82h0l.37-.18v-.23l.41-.27v0a8.94,8.94,0,0,0,.55-2.15,4.59,4.59,0,0,0-.74,0l-.41-.18c0,.14-.09.46-.14.59-.27.19-.36.65-.68.88l-.23-.23,0-.37.51-.28a17.82,17.82,0,0,1,.55-2.7l.59-.73a7,7,0,0,1,.32-1l.23-.14-.13-.23,0-.59c-.6.78-.73,1.55-1.42,2.33a14.72,14.72,0,0,1-.69,1.56h0a5.92,5.92,0,0,1-.65,1.74v.05a9.77,9.77,0,0,0-1.19,1.79l-.18-.05a1.24,1.24,0,0,1,.5-.91c0-.42.64-2,.78-2.66a1,1,0,0,0,.18-.69v-.32l.23-.51L107,49.1c-.32.59-.5,1.23-.82,1.83l-.09-.23a10.77,10.77,0,0,0,.09-1.7,2.39,2.39,0,0,0,.37-.73c.13,0,.18-.18.18-.28l0-.27.28-.64a1.47,1.47,0,0,0,.41-1.15l.09,0,.23-.42,0-.5.27-.28v-.27h-.23a.63.63,0,0,0-.41.09,8.71,8.71,0,0,1-2.24.32,4.27,4.27,0,0,1-1.33.28.81.81,0,0,1-.46,0c-.14,0-.09,0-.09-.09l-.6,0c.14.18,0,.45-.41.27l-.23.09-.14-.23h-.18a.33.33,0,0,0,0,.19,1.09,1.09,0,0,0-.87.18c-.91.18-2.29.23-3,.46-.41-.09-1.1.32-1.51.23H96.2c.51-.41,1.88-.41,2.62-.64.13-.19.41-.1.55-.28h.82l1.88-.55-.64.09-.14-.45A21.78,21.78,0,0,0,106.24,43v-.09c-.18,0-1.28.18-1.42.14s-.09,0-.09-.09l.37-.19.41-.09c-.37,0-.14-.36.27-.32l.55-.23c.14-.27.42,0,.55-.27l.19,0c.09,0,.23,0,.23.14a1.43,1.43,0,0,0,.41-.14l-.09-.09a10.18,10.18,0,0,1,1-.27.85.85,0,0,0,.69-.19v0h.09l.28-.37-.88-.09-.32.18c-.13,0-.41,0-.41.09l-.5,0L107.3,41s.13,0,.13,0l.32-.23a.42.42,0,0,0,.37-.19l.28-.09.18-.23-.32.09c-.09,0-.41-.09-.37-.18a.59.59,0,0,1,.37-.09c-.14-.05-.23-.14-.23-.23s.23,0,.27,0,.55.14.51.18l-.19.05H109l1.51-.46v-.09c0-.41.27-.69.32-1.1.37-.09.41-.46.41-.78v-.23l.46-.14.18-.23-.41-.23a9.4,9.4,0,0,0,.64-1.65,3.52,3.52,0,0,0,.51-.73l.36-.27a4.11,4.11,0,0,1,.6-1.38l.37-.18-.23-.64,0-.23.42-.14.13.14v-.1l.28-.41c.14-.59.09-1.33.69-1.69a3.58,3.58,0,0,0,.36-1l.37-.19a2.06,2.06,0,0,0,.14-.68,3.16,3.16,0,0,0,.27-.92l.37-.09v-.18L117,26v-.27l-.19-.19-.45-.09-.1-.41h-.45l-.1.18-.22-.13c-2.53-.1-4.86.64-7.34.64-.55,0-1,.23-1.56.23a1,1,0,0,1-.59.23,1.33,1.33,0,0,1-.6-.19,3.8,3.8,0,0,1,1.79-.59,1.81,1.81,0,0,0,1.1-.19h-.09a3.91,3.91,0,0,0-.74-.36,9.91,9.91,0,0,0,1.61-.23,1.06,1.06,0,0,1,.5-.41L109.4,24c-.78-.09-1.51.23-2.33.09l.27-.18.46-.05a6.15,6.15,0,0,0,1,0l0-.32h-.23c-2,0-3.9.51-5.87.46l-.18.19c-1.15,0-2.34.09-3.49.13l-.13.19-.23-.37.09-.23h.5l.32-.14c.28.05.55-.14.83-.23a.65.65,0,0,1,.69-.41,6.72,6.72,0,0,0,.87.05c.5-.55,1.37-.37,1.92-.83a3.68,3.68,0,0,1,.74,0l.22-.46c.92,0,1.75-.42,2.66-.42l.37-.13a1,1,0,0,0,.6,0l.27-.19.46,0,.37-.28a2.62,2.62,0,0,1,1-.09,2.51,2.51,0,0,1,1.52-.27l.41-.19a11.06,11.06,0,0,0,1.15,0l.18-.28h.69l.41-.18h.78l0-.14c.6,0,1.24.14,1.79.1l.41-.19a8.84,8.84,0,0,0,1.15,0l.14-.1c.64,0,1.37,0,2.11,0v-.09a1.45,1.45,0,0,1,.5-.46l.18-.41c0-.14.05-.33.23-.33a2.65,2.65,0,0,0,.55-1,2.88,2.88,0,0,0,.69-1.33c.14,0,.23,0,.23-.14v-.14c.5-.09.37-.78.78-1,0-.18.27-.55.46-.55h0c0-.09,0-.23.1-.23a5.09,5.09,0,0,0,.91-1.33c.23-.27.6-.37.83-.64-.09-.05-.23-.14-.23-.23s.14-.09.18-.09v-.14l.18.14s.1,0,.1,0a.16.16,0,0,0-.14-.14,4.09,4.09,0,0,0,.73-1L128,10c.1-.23.42-.92.69-.92h.05l-.05.37-.32.23c-.41.73-.78,1.65-1.24,2.29l.23-.27.28.27a10.32,10.32,0,0,0-1.29,2.75l.55-.46.19.28a1.19,1.19,0,0,1-.37.64c0,.18-.18.27-.18.46,0,.41-.23.46-.23.73l-.23.18L126,17c-.09.05-.09.19-.09.28v.09a1.86,1.86,0,0,0-.5.69l.22.36.19.1s.09.32.14.32,0-.1,0-.1c0-.32.32-.27.32-.41V18.2a1.7,1.7,0,0,0,.14-.69,1.83,1.83,0,0,1,.5-.13s.1,0,.1,0a.62.62,0,0,1-.14.28l-.05.23-.27.27.27.23a.1.1,0,0,1,.09.09c0,.37-.32.64-.45,1-.1,0-.19.05-.19.14a2,2,0,0,1,.55.05,6.77,6.77,0,0,1,.87-1.24c.37-.05.14-.6.42-.69a2.94,2.94,0,0,1,.45-.64h.1s.23,0,.23,0-.33.32-.42.36a5.07,5.07,0,0,1-.78,1.38.31.31,0,0,0-.18.32,1.74,1.74,0,0,1-.27.46,6.25,6.25,0,0,0,.87.09l0-.14c.09-.09.32-.41.46-.41s0,.32,0,.41.09.05.09.14,0,0-.05.09c.14,0,.32,0,.46,0l.18.23.46-.23.41.23a5.77,5.77,0,0,1,.83,0l.23.28c.73.18,1.24.73,2.11.87l.41-.19a27.49,27.49,0,0,1,2.61,1.29l0,.14c.14,0,.32,0,.5,0a3.15,3.15,0,0,0,.87.41,2.07,2.07,0,0,1,.46.83,2.55,2.55,0,0,1,.92.59c.18.65.92.42,1.37,1.24h.05l.23.41,0,.42.33.18.18.32v.09a2.58,2.58,0,0,1,.46,1.29l-.14.32c-.23,0-.23.32-.23.5v.05c-.64,1.23-.09,1.92-1.65,2.84l-.27.55-.46.32-.05.09-.41.23a3.27,3.27,0,0,1-.87.87l-.28.41a1.76,1.76,0,0,0-.68.1,1.69,1.69,0,0,1-.55,1.19,2.17,2.17,0,0,0-.56-.19l0-.32-.18-.23a1.86,1.86,0,0,1,.32-.5l.46-.09.27-.51h-.14l-.45.19v0c-.69.1-.92.51-1.33,1.06l-.32,0-.14.32c-.41,0-.78.23-1.19.28-.23.46-.92.32-1.1.82a.15.15,0,0,0,.13.05.7.7,0,0,0,.42-.18l.23.32a3.43,3.43,0,0,1,.87-.78c0-.14.13-.19.27-.19l.23.05V36a1.51,1.51,0,0,1,.6-.55h.46l.18.37-.18.6a7.8,7.8,0,0,1-1.11.59v.14l-.45,0-.32.36h-.55l.18.42a7.35,7.35,0,0,0,2,.41c.14.32.6.37.87.5.37.42,1.1.14,1.88.92l.5.14c.69,1.23,1.2.91,1.88,1.74v.09l.37.32a6.24,6.24,0,0,1,.41,1.61l.19.36-.14,2.84c-.28.1-.46.78-.51,1-.68.28-.5,1.24-1.14,1.56a6.45,6.45,0,0,1-.41,1h-.14l-.46.23-.14-.46.19-.5.5-.23h0a15.9,15.9,0,0,0,.55-1.83l-.23-.55-.46.46.37.32a2.93,2.93,0,0,0-.69.91l-.23.19,0,.73a1.42,1.42,0,0,0-.68.6l-.42,0v-.14l.42-.27.22-.37,0-.23.28-.41-.37-.27,0,.27-.36.37-.09.41h-.32a.84.84,0,0,1-.69.32c0,.32.09.6,0,.92a4.15,4.15,0,0,1-1.19,1v0l-.37.37v0a8.8,8.8,0,0,1-1.92,1.38l.32.28.46.09a.41.41,0,0,1,.13.32c0,.27-.55.41-.77.46a1.47,1.47,0,0,0,.5-.55c-.46,0-.87.27-1.28.27a2.18,2.18,0,0,1-.78-.18l0-.37a3.1,3.1,0,0,1-1.1.6l-.27.36c-.19.05-.37.28-.51.37h.28v-.05l1-.32a6.87,6.87,0,0,1,1.61.23l-.19.37h-.13l-.46.23-.37-.05-.14.23-.46.23-.27,0a2.53,2.53,0,0,0-.78.41,1,1,0,0,0-.87.41,2.72,2.72,0,0,1-.78.28c-.32,0-.55-.28-.73-.55v-.19l-.23.46h-.23l0-.5v0l.37-.32a.16.16,0,0,0-.14-.05c-.18,0-.37.19-.46.28v.64a2.13,2.13,0,0,0,.6.5l-.46.19h0l-.41.32-.69.14c-.22.36-.73.27-1.1.46l-.09.22-.46.05-.41.32h0l-.42.28-.82-.51a2,2,0,0,0-.41.69l-.37.18c-.28-.14-.28-.78-.37-1l.32-.18a2.1,2.1,0,0,0,.74-.1l.36-.27.19.18h.13a11.15,11.15,0,0,1,1.65-.46l.19-.18.46-.09.13-.09.14-.46,0,.18.18.18.46,0,.18-.28-.18-.36v-.28c-.41,0-.73.55-1,.78h-.46l-.14.18a.91.91,0,0,1-.5-.09c-.32.23-.73.14-1.1.28-.09.23-.78.41-1,.36a3.45,3.45,0,0,1-1.37.33l-.28-.05-.18.18h-.23l-.09.19a4.27,4.27,0,0,0-1.06.13v.23a1.39,1.39,0,0,0,.83.32l.18.19.32-.41v-.14a2.77,2.77,0,0,1,.83-.19l-.09,1-1,.36a3.17,3.17,0,0,0-.87,0c0,.32-1.28.46-1.56.46l-.32,0a2.83,2.83,0,0,1-1.37.59l-.19.19c-.5,0-1,.13-1.51.13a8.89,8.89,0,0,0-2.2.14v-.23l-.46,0,.09.32a1.34,1.34,0,0,1-.59.41l.32.27-.37.32a2,2,0,0,0-.68-.18,2.79,2.79,0,0,0-.23-.87l-.37.23.09.37-.32.18v.41h-.6l-.45.19-.32,0c-.14,0-.33.14-.46.09l-.46.18a5.1,5.1,0,0,0-.78,0l0,.14a4.15,4.15,0,0,1-1.69.13l-.23.19h0c-.36.18-.91.18-1.24.41-.55-.18-1.14.05-1.74-.09l-.46.14a8,8,0,0,0-1.1-.05l0-.18-.46-.1.09.37a1.08,1.08,0,0,1-.5.32l.27.23-.36.37-.6-.28a3.57,3.57,0,0,1-.18-.78l-.32.14.09.37-.37.14v.36l-.5,0-.46.18-.64-.09,0-.23.09-.23h.46l.14-.23a1.82,1.82,0,0,1-.69-.09h-.09l-.32.46-.37,0-.09.09a3.06,3.06,0,0,1-.5-.27l-.32.23a1.15,1.15,0,0,1-.51-.09,20.18,20.18,0,0,1-2.2,0l-.27.13a12.65,12.65,0,0,1-1.42.14l-.51,0c-.18-.13-1.79-.22-2.2-.32l-.27.42a12,12,0,0,0-1.2-.23c-1,0-2,0-2.93,0l-.27-.27-.32.14a9.71,9.71,0,0,1-1.2-.1l0,.14-.42-.09a1.07,1.07,0,0,1-.55.14,5.39,5.39,0,0,1-1.51-.19,1.87,1.87,0,0,1,.46-.09l.46,0a2.09,2.09,0,0,1,1-.23l.32.14.51-.19a3.28,3.28,0,0,1,.68.19,3,3,0,0,0,.87-.32l.56.18.41-.23h.59l-.5-.18-.37.18L82.18,64l.13-.19.33-.13a4.18,4.18,0,0,0,1,0c.28-.19.78-.05,1.1-.05a3.17,3.17,0,0,1,1,.05l.41-.23h.27l.23-.37c.64.5,2.07-.28,2.8-.14l.14-.14c.64,0,1.28-.23,2-.23l.36,0,.23-.23h.28a4.13,4.13,0,0,0,.73-.36,1.79,1.79,0,0,1,.46,0l.28,0,.13-.1.09-.23.51.23.09-.23v-.18l-.46,0a2.94,2.94,0,0,0-.91.18l-.6,0-.37.14a2.79,2.79,0,0,0-2.11.28c-.18-.19-.87-.19-1.1-.23l-.09-.23c.19-.09,0-.28-.09-.37l-.41.28a2.41,2.41,0,0,1-.78-.19l0-.23-.73.37-.78-.09-.37.18-.41-.27,0-.19.46.09.41-.22a1.79,1.79,0,0,0,1.05-.28c.19,0,.37,0,.55,0l.42-.19.55,0,.32-.32.59-.14a3.64,3.64,0,0,0,.64-.6l.65-.13a2.79,2.79,0,0,1,.64,0c.36-.13.73-.36,1.1-.5a1.92,1.92,0,0,0,1.28-.51h.64l.09-.13.46,0,.09-.14.42.09.09-.18.36.05a3.5,3.5,0,0,1,1-.32v-.05l.37-.32v0h1a1.77,1.77,0,0,0,.51-.32l.41,0-.09.13c.59-.27,1.1-.68,1.69-1l.51.23c.46-.32.69-.64,1.24-.64l.13-.14.51.05a1.64,1.64,0,0,1,1-.14l.14-.14a5.27,5.27,0,0,0,1.19,0c.27-.55,1.79-.64,2.29-.64l.46-.23ZM89.88,61.33l.73.1-.18-.23a2.84,2.84,0,0,0-1.06.13l-.09.1.23.09Zm.82.1.09,0,.14-.18a3.21,3.21,0,0,0,.69,0,3,3,0,0,1-.87-.23l0,.28Zm3.72,3.62-.1.09a1.91,1.91,0,0,0-1.23.18l-.74-.09-.41.14.28-.28a1.08,1.08,0,0,0,.55-.09,1,1,0,0,0,.73-.09A3,3,0,0,0,94.42,65.05Zm-.23-3.95c-.19,0-.37,0-.51,0l-.23.37A2,2,0,0,1,94.19,61.1Zm.82.51.23-.09,0-.09-.51,0Zm1.61.27h.18l-.18-.13Zm.18-1,.14,0,.45,0,.19-.14Zm.78,2.52.59-.1,0-.22H98l-.09.18ZM100,60.19a2,2,0,0,0-.74.09L99,60.6l.87.09.5-.27a4.14,4.14,0,0,1,.78-.05l.42-.27,0-.14-.46-.05A1.4,1.4,0,0,1,100,60.19Zm1.28,2.93.18.18L102,63h-.23A1.87,1.87,0,0,0,101.29,63.12Zm.83-.14,0,.05.23-.09,0,0h-.1Zm.73-.13.09.23.14-.28ZM103,60.1h.46l.09-.1-.13-.18-.46,0Zm.19-17a1.82,1.82,0,0,1,.55-.23c.13,0,.27.09.23.23s0,0,0,0-.27.09-.41.13Zm1.46,20-.46,0-.27.09v.05c-.14,0-.18-.09-.32,0l-.23.32a1.67,1.67,0,0,1,1.24-.05l.32-.18a4.46,4.46,0,0,0,.78-.18l.27,0,.09-.18c-.18,0-.32,0-.5,0h-.55Zm-.23-18.25c.23-.18.28-.09.65-.27l-.65,0c-.18-.09-.45.14-.55.23v.05c.1,0,.14-.05.23-.05Zm.92-.46c-.09,0-.09.05-.09.1s0,0,.09,0l.14.05C105.55,44.51,105.51,44.42,105.37,44.37Zm.55,0c0-.09-.09-.09-.14-.13l-.09,0a.2.2,0,0,0,.14.14Zm1.15-2.29a3.36,3.36,0,0,1-.6.09l-.37.23.14.05A8.16,8.16,0,0,1,107.07,42.08Zm-.78,17.1h.23l.09,0-.32-.18Zm.23,3.39,0,.18h.09l.14-.27c.18-.28.14-.28.14-.28h-.05l-.23.42Zm.78-.32,0,0h-.23Zm.36,0,0,.23h0l.09-.23Zm.78-4a2.82,2.82,0,0,0,.64-.09l-.32-.05Zm.23,2.8h.5l-.27-.18-.46.09Zm.73-.14h.19a1.62,1.62,0,0,0,.46-.14l.18-.18A2.61,2.61,0,0,0,109.4,60.92Zm.23-20.81a.15.15,0,0,0,.1,0h0Zm.74,10.54.18.14,0-.41-.23-.09Zm.82,6.79-.27.32a6.93,6.93,0,0,0,.91,0,2.34,2.34,0,0,1,1.42-.41,2.24,2.24,0,0,0,.51-.46l-.05-.09-.5,0C112.71,57.3,111.83,57.21,111.19,57.44Zm0-13.48,0,0,.18.36h.14a1.86,1.86,0,0,0,.23-.41Zm0,5.27.19-.36-.19.09Zm2.43,11.09.18.23a4,4,0,0,0,1-.45l-.13-.1A1.71,1.71,0,0,1,113.62,60.32ZM118.53,43l-.19.37-.36.32A5.06,5.06,0,0,1,116.65,46l-.05.51-.14,0-.46.87v.37c-.68.6-1.28,2.84-2.2,4.08l0,.5.55.19a2.93,2.93,0,0,0,.87-.78l.55.05.55-.19c.09,0,.41.05.5.05a3.08,3.08,0,0,1,1.43-.28l0-.18.41-.32a3.9,3.9,0,0,1,1-.14,15,15,0,0,1,2.57-.73l.09-.09.46-.19c.18,0,.37-.18.55-.14l.27-.41.14,0,.37-.32c.46,0,.82-.37,1.28-.37s1-.55,1.51-.73a1.83,1.83,0,0,1,.46-.37l.46,0,.28-.18a4.91,4.91,0,0,0,2-1.61,3.43,3.43,0,0,0-.55-1.28c-.82-.59-1.92-.41-2.84-.87l-.87.05-.32-.23h-.87a3.68,3.68,0,0,0-1.06-.28l-.09-.14a18.08,18.08,0,0,0-4.26.37l-.28-.32S118.57,43,118.53,43Zm-4.18-13.11.05-.45.14.18.14.46Zm1.11,27h.59c-.14-.32-.37-.37-.69-.37ZM118,59.36l-.27.14h-.51l-.09-.18-.37.41-.36-.23-.46,0,0,.41a3.54,3.54,0,0,0,.55.32l.23-.28.46-.09Zm3.53-25.57a.46.46,0,0,0,.23.36c.14-.23.23-.55.37-.78v-.09l.27-.41-.41-.23C122,33.05,121.55,33.37,121.55,33.79Zm.41.87.1.55a2.4,2.4,0,0,1,1.69-.46l.09,0,.32-.36a2,2,0,0,0,.69-.37,4.31,4.31,0,0,0,1.24-.6,3.21,3.21,0,0,0,1.47-.23l.36-.46h.51a7.28,7.28,0,0,1,2.38-1.6,1.51,1.51,0,0,1,.46-.27l.18-.33v0l.42-.28.13-.36a2,2,0,0,0-.18-.69,1.9,1.9,0,0,1-.73-.23,5,5,0,0,1-.78-.09v-.32l-.23-.41a1.23,1.23,0,0,1,.09-.37l-.28-.46v-.05l-.45-.09a3.51,3.51,0,0,0,.18.69l-.23.28v0l-.37-.37c0-.23-.27-.23-.46-.23h0l.23.42-.09.23a13.42,13.42,0,0,0-3.3.22l-.19.46a1.81,1.81,0,0,0-.5,1l-.32.36,0,.14a6.46,6.46,0,0,0-1.19,2,.85.85,0,0,1-.5.91,14.29,14.29,0,0,1-.6,1.33l.14.09Zm0-.14v.14l.05-.19Zm.51-2.75.18,0v-.36l-.18-.09Zm1.24-1.7c-.23,0-.33.37-.37.55l.27-.18.14-.37Zm.36-.23.09-.5a1,1,0,0,0-.41.73Zm-.23,19.58v.09c0,.13.32.27.42.32a1.53,1.53,0,0,1,.78-.32V49.1l-.37.13A2.5,2.5,0,0,0,123.84,49.42Zm.09-29.94s0-.09,0-.09Zm.23-.59s.19,0,.19-.05l-.32,0C124,18.89,124.12,19.12,124.16,18.89Zm.46-3s0-.05.09-.05a.14.14,0,0,0-.13-.13s0,0,0,0S124.58,15.91,124.62,15.91Zm.28,1a.13.13,0,0,0-.14-.14h-.05C124.76,16.78,124.81,16.87,124.9,16.87Zm0-.27c.1,0,.1-.05.1-.1h-.14Zm.19-.28s0-.09,0-.09l-.13-.05C125,16.23,125.08,16.32,125.13,16.32Zm.23-.46h.09v0c0-.05,0-.05-.09-.05h0v.05S125.31,15.86,125.36,15.86Zm.32,33.37v-.36l-.37,0Zm-.23-33.69s.13,0,.09-.09,0,0-.05,0-.09,0-.13,0A.09.09,0,0,0,125.45,15.54Zm.13.69-.13.18a1.08,1.08,0,0,0,.41-.68v-.1A1.24,1.24,0,0,0,125.58,16.23Zm0-1s.14,0,.19,0,0,0-.09,0a.16.16,0,0,0-.14,0Zm.28-1.7s0,0,0,0l0-.05s0,0,0,0h0S125.77,13.52,125.86,13.52Zm.09-.22s0-.05,0-.1v0l-.14-.05C125.86,13.16,125.91,13.3,126,13.3Zm0,2.15c0,.05.13.05.18.05s0-.28.18-.28l.09-.14v-.41l-.27.32C126.18,15.18,125.91,15.27,125.91,15.45Zm.18-2.8a.76.76,0,0,1-.09.28l.23-.09c.09,0,.13-.09.13-.19s0-.22-.09-.22,0,.13,0,.13Zm.5,35.67h0l-.55.41v.14l.46,0,.09-.14.41,0c.14-.32,1-.64,1.33-.74l-.23-.27h-.5A1.24,1.24,0,0,1,126.59,48.32Zm0-29.8c0,.09,0,.09.09.09h0v0c0-.09-.1-.09-.14-.09Zm.59-.92c.1,0,.32,0,.32.14s-.13.09-.18.09-.27,0-.27-.09a.25.25,0,0,1,.09-.14Zm.46-3.94c0,.14-.09.23-.09.32l-.23-.13,0-.23S127.6,13.62,127.6,13.66Zm-.32,42.77.6,0,.18-.36a.88.88,0,0,0-.5.09Zm1.47-7.89H129l.32-.36A1.35,1.35,0,0,1,128.75,48.54Zm.46,5.87c0,.05.09.05.09.05a2.89,2.89,0,0,0,1.14-.32l.05-.09c0-.1-.28-.1-.37-.1S129.21,54.23,129.21,54.41Zm1.28-27.68.46.09-.14-.28h-.46Zm1.79,26.49h.32l.23-.28h-.41Zm.46-25.67v-.23l-.32-.36A2.1,2.1,0,0,0,132.74,27.55ZM134,54.14l.09-.32.28-.32.45,0C134.8,53.91,134.34,54.09,134,54.14Zm.82-1h.1l.45-.23-.13.41-.42.23Zm2.25-1.38-.37.14-.5.55-.37.09-.27-.18v-.28h.23l.41-.22v-.23l.37-.23.13-.42a2,2,0,0,1,.74.19A.82.82,0,0,1,137.09,51.75Zm1.33-19.29-.55.18v.87c.41-.32.92-.6.92-1.15l0-.32Zm0,14.07.46.18.32-.46-.32-.13Zm1.66-15.72h.22l.37-.19-.37-.14Z" transform="translate(-7.84 -9.03)"/><path class="a" d="M151.16,23.15l.78,0,1.51-.77a4.89,4.89,0,0,0,1.1-.32.56.56,0,0,0,.41-.1l1.1-.32.14-.23.23.32.73-.09c.09-.23.64-.23.83-.23,0,0,.23-.09.23-.18s-.1-.09-.14-.09l.27-.19a1.15,1.15,0,0,0,.78-.13c.42,0,.23,0,.46-.14a.34.34,0,0,0,.41-.09c.33,0,.6-.19.88-.19s.36.1.5-.09l.32-.13c.05,0,.32.09.32-.05a1,1,0,0,0,.51-.14c.09,0,.41.09.41-.09.64,0,3.07.23,3.3-.09.23,0,.41.18.59,0l.74.14a.25.25,0,0,1,.23-.14c.68,0,1.42.37,2.15.37a4.55,4.55,0,0,1,1.84.41c-.1.32.73.36.91.41a5.33,5.33,0,0,1,1.56.87,2.24,2.24,0,0,0,.46.19H175a3.74,3.74,0,0,1,1.56,1.28c0,.23.36.55.55.64-.05.28.32.05.32.32v.05c.18,0,.14.23.32.27l.37.78c.13,0,.32.14.32.28v.09a1.54,1.54,0,0,1,.32.69l-.05.18.32.37c0,.13.46,1.55.46,2.06,0,.18,0,.37,0,.55s-.05.27,0,.41l.18.09c-.18,0-.22.19-.22.32a7.16,7.16,0,0,1,.13,1l.09.32c-.18,1.47-.54,3-.82,4.45-.37-.14-.64,1.24-.73,1.47-.23.59-.6,1.1-.83,1.69a2.08,2.08,0,0,0-.5.78l-.23.09c0,.09-.09,1-.28,1s0-.18,0-.22h-.05a.1.1,0,0,0-.09.09.72.72,0,0,0,.09.27c0,.14-.09.14-.18.14h-.19v.05c0,.18.14.09.14.32l-.36.13c.22.05-.1.1-.14.1s0,.55-.14.55-.05-.14-.05-.19l-.36.37c-.09.37-.51.5-.6.82l-.41.37-.14.55a.21.21,0,0,0-.27.23v0a15.14,15.14,0,0,0-1.42,2l-.32.09a.52.52,0,0,1-.33.42c0,.23-.22.27-.27.5-.69.41-1.06,1.19-1.74,1.56-.37,0-.41.55-.74.55h-.09l-.73.6c0,.13-.09.32-.23.32h-.09a.45.45,0,0,1-.41.32,8.49,8.49,0,0,0-.83.59.44.44,0,0,1-.27.28,8.66,8.66,0,0,1-1.24.87c-.14.5-.92.41-1.1.92l-.32.27-.78.18-.41.28a.2.2,0,0,1-.19.18c-.14,0-.36-.13-.41.09l-.41.1c0,.18-.14.36-.32.36h-.1l-.13.42c-.42-.05-.23.41-.55.27,0,.09-.1.14-.19.14l-.23,0-.41.28c-.14-.05-.41-.09-.46.14l-.46.22a.24.24,0,0,0-.36.19c-.32-.09-.09.23-.32.23a12.29,12.29,0,0,0-1.61.41c.05-.32-.36,0-.46.09-.36,0-.68.32-1,.32-.14,0-.27,0-.27-.23s0-.14-.05-.14a1.24,1.24,0,0,0-.6.28A.7.7,0,0,0,153,58l-.41-.13-.18.18-.23-.09-.37.36c-.23,0-.46-.32-.73-.32-.1,0-.14.19-.14.28-.46,0-1,0-1.24-.41,0,.36-1.28,0-1.51-.1-1.19-.27-2.52-.73-3.71-.91l-.19-.46c-1.37-.32-1.83-1.74-2.43-1.83a8,8,0,0,0-1.14-2.07l-.51-.14c0-.09.09-.36,0-.41s0-.32-.14-.32l-.05-.5a1.65,1.65,0,0,1-.23-.78.26.26,0,0,1,.28-.23h0a1.32,1.32,0,0,0,.18-.6L140,49c0-.09,0-.28-.09-.28s-.51.19-.51,0a7.93,7.93,0,0,1,.14-1l.18-.1-.13-.27a49.18,49.18,0,0,1,1.37-5c.37-.37.23-1.06.64-1.47l0-.28.18-.09a.77.77,0,0,1,.32-.5c0-.09,0-.28.14-.28h.09a.91.91,0,0,1,.28-.5l-.18-.32c0-.14,0-.46.22-.46.6,0,.19-.78.74-.78h0l.14-.73.41-.23.14-.55c.09,0,.23,0,.23.18s-.09.09-.14.09a.37.37,0,0,0,.28.42s-.05.23,0,.23.23-.14.32-.19.23-.5.23-.59a1.79,1.79,0,0,1,.32-.46c.14,0,.23-.19.23-.28.09-.5.51-.87.78-1.33-.09,0-.27,0-.27-.18s.23-.37.27-.6a4.43,4.43,0,0,1,.64-.59c0-.14,0-.32.23-.32l.23,0,.28-.32s.27,0,.27,0-.09-.09-.13-.09l.22-.33c.05-.41.74-.13.83-.45s.46-.55.55-.92l.37-.18.27-.46c.28.09.14-.28.32-.28h.05l.41-.18a.3.3,0,0,1,.28-.23,1,1,0,0,1,.32.09,12,12,0,0,1-1.24.87l0,.23a.15.15,0,0,0,.14.14c.18,0,.32-.23.55-.23h0c.5-.37,1-.73,1.51-1.15.41.05.5-.41.82-.41h.1c.09,0,.27-.14.27-.27s-.14-.1-.18-.1l-.87.6c-.05,0-.19-.05-.19-.14s.19-.23.28-.32c0-.27.78-.27.91-.69l.74-.41s.18.09.18,0-.09-.09-.14-.14a.15.15,0,0,1,.14-.13c.09,0,.23.13.28-.05a6.35,6.35,0,0,0,1.56-.69,10.12,10.12,0,0,1,1.23.05,3.12,3.12,0,0,0,.55-.37l-.14,0-.73.13a1.52,1.52,0,0,0-.59-.09.78.78,0,0,0-.55.05c-.23-.19-.55,0-.78.14,0-.1-.09-.37-.19-.37s-.09.09-.13.14c-.19-.14-.37,0-.42.18-.18-.05-.68-.05-.78.18-.09,0-.91-.23-1-.09-.23.19-.32-.32-.46.05l-.64-.23c-.09.18-.55.18-.73.14s-.19.13-.41-.05l-.42.37-.5.09-.28-.09c-.13-.14-.27,0-.32.13-.23-.13-.69.19-.87.33-.73-.28-.5.09-1,.32-.36-.19-.78.23-1,.41l-.37-.18.37-.46.55-.32-.28-.05c-.27,0-.41.28-.64.41-.41,0-.64.23-.91.46l-.37-.09c.18-.23.41-.64.78-.64h0c.37-.09.74-.51,1-.51h.09c.23-.18.42-.46.74-.46h.09a1,1,0,0,1,.69-.32h.13l.28-.32.23.05.09-.18.32.09.05-.23.13-.05c.23,0,.23.23.33-.23.27.1,1.14-.27,1.46-.41l-.59.23c-.14-.18-.28-.05-.46-.09l-.09-.51h-.09c-.33,0-.56.37-.74.55a6.69,6.69,0,0,1-1,.23c-.14,0-.41.05-.41-.13l0-.19c.23,0,1.61-.23,1.61-.73.09-.23.64-.28.87-.28l.27-.32.23.42h-.14s0,0,0,0,0,.14,0,.14,0-.09,0-.09l.09-.09Zm-9.9,24.66a.1.1,0,0,0,.09-.09l-.18,0S141.21,47.81,141.26,47.81Zm0,.83s0,.13.09.13,0-.09,0-.13,0,0-.09,0h0Zm0-2.75a.34.34,0,0,0,.09.18l-.09,1,.23-.27-.1-.18a5.21,5.21,0,0,0,.14-.92s0-.14,0-.14l-.05,0A.28.28,0,0,0,141.26,45.89Zm.87-3.76s0,.23-.09.23-.19-.55-.42-.55a3.61,3.61,0,0,1-.32,1l.51,0s0-.22.14-.22,0,.09,0,.13a1.18,1.18,0,0,1-.27.64c0,.19.36.23.45.23l.42-.87-.28-.27a2.78,2.78,0,0,1,.28-.87l.23-.32,0-.32-.32,0C142.45,41.3,142.22,41.72,142.13,42.13Zm-.64,3.16-.1-.37C141.35,45.11,141.26,45.2,141.49,45.29Zm.13,7.43a.71.71,0,0,1,.23.5l0,.18c.09.37.09.78.55.78a.1.1,0,0,0,.09-.09c0-.09-.09-.09-.14-.14a9.93,9.93,0,0,1-.73-2c-.09.05-.14-.09-.14-.18v0l-.05.19Zm.23-8.76c0,.09.14.09.19.14v-.05c0-.09-.09-.13-.14-.18Zm1.33-4.58c-.14.09-.5.32-.5.46s.14.18.23.18l.46-.28.18-.5a.65.65,0,0,0,.46-.37l-.32-.36C143.59,38.92,143.27,38.92,143.18,39.38Zm1.1-1.15c-.09,0-.23,0-.23.09a.34.34,0,0,0,.28.32,9.89,9.89,0,0,0,.55-.91l-.32-.09C144.51,37.86,144.33,38,144.28,38.23Zm-.18,1a.17.17,0,0,0,.18.19c0-.09-.09-.46-.14-.46l0,0Zm.82-4a.26.26,0,0,1,.28.27c0,.32-.23.32-.28.6a.52.52,0,0,1-.13.36c-.09,0-.19-.18-.32-.18Zm.19,2.29s0,0,0-.09-.09-.1-.18-.1S145.06,37.5,145.11,37.5ZM147,26.68c-.05,0-.05,0-.09.05s0,0,0,0S146.94,26.68,147,26.68Zm-.05,7c0,.05.05.28.14.28l0-.09.33-.37s0-.18,0-.18l-.05.18C147.12,33.42,146.94,33.37,146.94,33.69Zm.92-7.47-.78.37.27.09.42-.23a.32.32,0,0,1,.27-.14c.05,0,.14,0,.18.05l.28-.23-.37.14Zm1-.37a.45.45,0,0,1,.23,0l.09-.09a.31.31,0,0,1-.27,0ZM149.1,32c0,.05,0,.32,0,.32s.05-.18.05-.18.27,0,.27,0-.27-.27-.36-.32Zm17.14-4.81-.87.23c-.09.32-.74.32-.78.64l-.83.28c-.09.45-.59.41-.68.73,0-.05.32-.23.32-.09v.09l.5.23.28-.18s.18,0,.18.13-.18.28-.28.32-.78.19-.82.42c-.23,0-.73.18-.83.41a4.81,4.81,0,0,0-1.55.87c-.1.27-1.52,1.24-1.52,1.33-.32,0-.59.37-.73.59-.51.33-1.83,1.61-2.15,1.75-.28,0-.37.59-.74.59h0c-.1.64-1.15,1.15-1.15,1.29a17.17,17.17,0,0,0-2.34,3.07L152,40a1.34,1.34,0,0,1-.41.6c0,.14-.14.32-.27.32l-.14.46a3.73,3.73,0,0,0-.69,1c-.09.5-.41.92-.46,1.42l.14.32c-.09.19-.09.55-.32.64l-.28.37.14.41a.26.26,0,0,1,.14.19c0,.32-.46,1.1.14,1.1-.09.41.27.55.27,1a2.76,2.76,0,0,0,0,.64s.23-.23.23-.09l-.05.18.46-.09s-.05.18,0,.18a.37.37,0,0,0,.23-.13l.14.36.69.1.37-.23a3.64,3.64,0,0,1,1,.23c.05.09.14.23.23.23s.14-.14.14-.19c.41-.18.82-.41,1.23-.64.23,0,.28-.23.46-.23a3.38,3.38,0,0,1,.69.14l.6-.78.82-.41.41,0a7.93,7.93,0,0,1,1-.73l.36-.09c.28,0,.69-.42.83-.6s.55-.46.73-.59c.23.09,1.51-1.06,1.65-1.15.28.09.55-.51.87-.51h.05s0-.18.09-.18.14.14.14.18l.32,0,.14-.32c.09,0,.13-.05.13-.14s0-.18.1-.18h0l.37-.32c0-.09.14-.46.27-.46s.09.09.09.09c0,.19-.13.41.1.41h.18l.92-1.19.23-.14v-.09c0-.09-.05-.13-.14-.13l.69-1.29c.09,0,.13,0,.13-.09a.72.72,0,0,0-.13-.32,8.5,8.5,0,0,0,.5-.78c.05-.23.27-.32.32-.55a.91.91,0,0,0,.28-.5c.18,0,.22-.14.22-.28v0a1.23,1.23,0,0,1,.51-.74l.41-.87c.28.09.46-.82.51-1,.41.09.73-2.11.82-2.47.23-1,.55-1.74.78-2.75-.14-.32-.46-1.1-.83-1.1-.13,0-.18.09-.22.18a13.21,13.21,0,0,0-1.24-.73c-.28,0,0,.27-.69-.05l-.09-.32-.14-.05a.27.27,0,0,0-.27.14l-.37-.27-.23.09a1.79,1.79,0,0,0-.69-.05l-.59-.32-.19.14ZM150,25.58l.13.05.1-.05a.27.27,0,0,0-.19,0ZM163,44.33l-.23,0a.72.72,0,0,1-.78.6l-.27.09c-.05-.14-.14-.23-.19,0l-.82.59-.09.56L161,46c.05,0,.14,0,.14.09s-.55.64-.73.64l-.23,0-.73.68c-.05,0-.14,0-.14-.09s.18-.23.27-.27l.14-.37s-.09-.23-.18-.23-.05,0-.05.09l-.82.41c-.05.33-.74.28-.83.6l-.82.28-.19.36c.09,0,.32.23.32.32s0,0-.09,0-.41.09-.5.09,0,.14-.09.14-.1-.19-.23-.19-.05.1-.05.1l.14.09s-.05.18-.14.18h0l-.36.05a.25.25,0,0,1-.28.18,1.26,1.26,0,0,1-.41-.09c-.18,0-.23.14-.27.27s.27.23.09.23c-.46,0-.92,0-1.38,0l-.32.05c-.05,0-.23,0-.23,0s.14,0,.14,0a2.23,2.23,0,0,1-.73.18c-.19-.13-.51-.41-.74-.41,0,0-.09,0-.09,0l-.41.32c.18,0,.27,0,.27.18s0,.32.28.32h0c.1-.69,1.1-.27,1.65-.27a1.27,1.27,0,0,1,.42-.09c.09,0,.13,0,.13.09v0a3,3,0,0,1,1.43,0c0-.19.27-.32.45-.42h.46c.05,0,.46,0,.46,0s-.14-.09-.18-.09l.27-.32c.41,0,.46-.09.74-.37l.54-.14a22.26,22.26,0,0,1,2.21-1.51h.09a2.08,2.08,0,0,0,1.05-.73c-.27,0,.05-.37.09-.51l1.19-.55a.45.45,0,0,1,.42-.32l.27-.23c.09,0,.19,0,.19-.14a1,1,0,0,0-.14-.36,3.07,3.07,0,0,0,1-.78l-.18,0c-.14,0-.18.14-.37.09,0,.19-.23.33-.32.55C163.3,44.05,163.3,44.33,163,44.33ZM152.3,24l0-.23c0-.05-.09-.05-.18-.05-.28,0-.51.28-.69.46l.41-.09C152.17,24.16,152.12,24,152.3,24Zm.87-.69-.13,0c0,.05,0,.19.09.19l0-.09.14-.14Zm2-.46,0,0c.05,0,.23-.09.23-.18s-.14-.09-.18-.09c-.05.32-.32-.05-.37.32a5.12,5.12,0,0,1-.73.23l.41,0C154.46,22.88,155,22.88,155.15,22.83Zm1.37,27.27a.61.61,0,0,0-.23.09c-.09,0-.27,0-.37.05a.52.52,0,0,0-.36.14c-.41-.14-.64-.19-.64.32,0,0,0,.09,0,.09s.6-.18.6.09c0,0-.14,0-.14,0-.27,0-.27.09-.27.37v.09l-.42-.37c-.09,0-.18.41-.18.46s.18.23.37.23a2,2,0,0,0,.73-.19,1,1,0,0,1,.23-.5c.14,0,.55.18.6-.05l.45-.27c-.13,0-.36,0-.36-.18s0-.23.09-.23a.13.13,0,0,0,.14-.14Zm-1.42,7s.05.14.09.14a.1.1,0,0,0,.09-.09l.23-.23-.23.13S155.1,57,155.1,57.07Zm1.15-.23h.13c0-.09,0-.18-.13-.18l-.05,0S156.2,56.84,156.25,56.84Zm.87-6.83a.35.35,0,0,0-.32.14l.18,0c.09,0,.23,0,.23-.18Zm.59-1.74c.28,0,0,.14-.13.14l-.19-.42c.19.1.32-.09.51-.09H158C157.94,48.13,157.76,48,157.71,48.27Zm-.09,7.84c0,.09,0,.14.09.14a.1.1,0,0,0,.09-.1.1.1,0,0,0-.09-.09h-.09Zm.64-7.11s0,.14.09.14.1-.09.1-.14l-.19,0Zm.23-23s.09.09.14.09a.1.1,0,0,0,.09-.09Zm1.42,29.15s0,.14.09.14.1-.1.1-.14l-.19-.05Zm.74-.28h.09c0-.09-.14-.18-.19-.22Zm.27-7.28c0,.09.18.09.23.09s.09,0,.09-.05a.58.58,0,0,0-.09-.27C161.06,47.35,160.92,47.44,160.92,47.54Zm1.24-2.16-.18.18c0-.18-.1-.13-.1-.27V45.2a.66.66,0,0,1,.42-.09h.13C162.39,45.2,162.3,45.38,162.16,45.38Zm1.28-.73c0,.09-.09.09-.18.09h-.09l-.37.46c-.05,0-.27-.05-.27-.14s.55-.46.64-.69ZM163,28.33c0,.05.14.09.18.09v0c0-.1,0-.19-.13-.19Zm.78,17.1a.66.66,0,0,1-.23.46c.23,0,.46-.33.6-.46.13,0,.18-.14.23-.23A1.42,1.42,0,0,1,163.81,45.43Zm2.29-1.15c-.23,0,0,.37-.32.32-.05.09-.14.09-.23.09l-.18,0c-.05.27-.37.5-.55.64s-.46.14-.46.32.18.18.27.18A5.67,5.67,0,0,1,166,44.65l.18-.37Zm.18,0,.1-.18.41-.23c0-.32.27,0,.27-.55,0,0,0,0,0,0-.37,0-.51.55-.78.83l-.05.14s0,0,0,0Zm1.29-4.4-.23.18.41-.18c.09-.27.28-.27.32-.59l-.23.32C167.57,39.52,167.61,39.65,167.57,39.88Zm-.19,2.84c0,.05,0,.14.1.14s.09-.09.09-.14a.11.11,0,0,0-.09-.09l-.1,0Zm1-4.21-.23.32,0,.23a.09.09,0,0,0,.09.09c.09,0,.14-.37.23-.37s0,0,.09,0a4.08,4.08,0,0,0,.32-1.06c-.09,0-.18.51-.18.55A.21.21,0,0,0,168.39,38.51Zm-.18,1.55s.09-.09.09-.13a.09.09,0,0,0-.09-.09c-.05,0-.05,0-.09,0S168.12,40.06,168.21,40.06Zm1.19.51a.11.11,0,0,0,.09.09s.09-.09.09-.14l-.13,0Zm.09-.37s0,.14.09.14.1-.09.1-.14a.11.11,0,0,0-.1-.09l-.09,0Zm.92-11.37.14.05c0,.09-.28.23-.32.37l-.32.18.22-.82Zm.73,9.36-.59.27c.27.14-.55.78-.55,1.19,0,0,0,.23,0,.23s.09-.09.09-.14c.1-.32.42-.45.46-.73.14,0,.23-.23.23-.32a.63.63,0,0,0,.32-.46l.19-.18c0-.09,0-.28.18-.28h.05c0-.13,0-.5.23-.5h0a2.07,2.07,0,0,0,0-.23s-.1.18-.1.18C171.33,37.13,171.19,38,171.14,38.19Zm-1-3,.19.05,0-.32-.13-.14ZM171,36l-.1-.46C170.87,35.76,170.78,36,171,36Zm-.14,1.65s0,.14.09.14,0,0,0-.09v0s-.1,0-.14,0Zm0-4.54c0,.09,0,.23.05.28,0-.19.23-1.15.46-1.19l.09-.46-.32-.37A11.88,11.88,0,0,0,170.91,33.14Zm.83-3.25s0,.14.09.14a.17.17,0,0,0,0-.1Zm.14,4.4-.09-.37C171.74,34.06,171.69,34.24,171.88,34.29Zm.09-.55s0,0,0-.05-.09-.13-.18-.13S171.88,33.74,172,33.74Zm2.84-.69c0,.09,0,.23.14.23v-.14s0-.27-.09-.27S174.81,33,174.81,33.05Z" transform="translate(-7.84 -9.03)"/><path class="a" d="M186.45,23.15l.78,0,1.51-.77a4.89,4.89,0,0,0,1.1-.32.56.56,0,0,0,.41-.1l1.1-.32.14-.23.23.32.73-.09c.1-.23.65-.23.83-.23s.23-.09.23-.18-.09-.09-.14-.09l.28-.19a1.11,1.11,0,0,0,.77-.13c.42,0,.23,0,.46-.14a.35.35,0,0,0,.42-.09c.32,0,.59-.19.87-.19s.36.1.5-.09l.32-.13s.32.09.32-.05a1,1,0,0,0,.51-.14c.09,0,.41.09.41-.09.64,0,3.07.23,3.3-.09.23,0,.41.18.6,0l.73.14a.25.25,0,0,1,.23-.14c.69,0,1.42.37,2.15.37a4.52,4.52,0,0,1,1.84.41c-.1.32.73.36.91.41a5.33,5.33,0,0,1,1.56.87A2.24,2.24,0,0,0,210,22h.32a3.74,3.74,0,0,1,1.56,1.28c0,.23.37.55.55.64-.05.28.32.05.32.32v.05c.18,0,.14.23.32.27l.37.78c.13,0,.32.14.32.28v.09a1.54,1.54,0,0,1,.32.69l-.05.18.32.37c0,.13.46,1.55.46,2.06,0,.18,0,.37,0,.55s-.05.27,0,.41l.19.09c-.19,0-.23.19-.23.32a7.16,7.16,0,0,1,.13,1l.1.32c-.19,1.47-.55,3-.83,4.45-.37-.14-.64,1.24-.73,1.47-.23.59-.6,1.1-.83,1.69a2.08,2.08,0,0,0-.5.78l-.23.09c0,.09-.09,1-.28,1s0-.18,0-.22h0a.1.1,0,0,0-.09.09.72.72,0,0,0,.09.27c0,.14-.09.14-.18.14h-.18v.05c0,.18.13.09.13.32l-.36.13c.23.05-.1.1-.14.1s0,.55-.14.55,0-.14,0-.19l-.37.37c-.09.37-.51.5-.6.82l-.41.37-.14.55a.21.21,0,0,0-.27.23v0a16.12,16.12,0,0,0-1.42,2l-.32.09a.52.52,0,0,1-.33.42c0,.23-.22.27-.27.5-.69.41-1,1.19-1.74,1.56-.37,0-.41.55-.74.55h-.09l-.73.6c0,.13-.09.32-.23.32h-.09a.45.45,0,0,1-.41.32,8.49,8.49,0,0,0-.83.59.42.42,0,0,1-.27.28,8.66,8.66,0,0,1-1.24.87c-.14.5-.92.41-1.1.92l-.32.27-.78.18-.41.28a.2.2,0,0,1-.19.18c-.14,0-.36-.13-.41.09l-.41.1c-.05.18-.14.36-.32.36h-.09l-.14.42c-.41-.05-.23.41-.55.27,0,.09-.09.14-.19.14l-.23,0-.41.28c-.14-.05-.41-.09-.46.14l-.45.22c-.19-.09-.32,0-.37.19-.32-.09-.09.23-.32.23a12.29,12.29,0,0,0-1.61.41c.05-.32-.36,0-.45.09-.37,0-.69.32-1.06.32-.14,0-.27,0-.27-.23s0-.14,0-.14a1.24,1.24,0,0,0-.6.28.71.71,0,0,0-.64.18l-.41-.13-.18.18-.23-.09-.37.36c-.23,0-.46-.32-.73-.32-.09,0-.14.19-.14.28-.46,0-1,0-1.24-.41,0,.36-1.28,0-1.51-.1-1.19-.27-2.52-.73-3.71-.91l-.19-.46c-1.37-.32-1.83-1.74-2.43-1.83A8,8,0,0,0,176,52.53l-.51-.14c0-.09.1-.36,0-.41s0-.32-.14-.32l-.05-.5a1.64,1.64,0,0,1-.22-.78.25.25,0,0,1,.27-.23h.05a1.32,1.32,0,0,0,.18-.6l-.23-.59c0-.09.05-.28-.09-.28s-.51.19-.51,0a7.93,7.93,0,0,1,.14-1l.19-.1-.14-.27a49.18,49.18,0,0,1,1.37-5c.37-.37.23-1.06.65-1.47l0-.28.18-.09a.77.77,0,0,1,.32-.5c0-.09,0-.28.14-.28h.09a.91.91,0,0,1,.28-.5l-.18-.32c0-.14,0-.46.22-.46.6,0,.19-.78.74-.78h0l.14-.73.41-.23.14-.55c.09,0,.23,0,.23.18s-.09.09-.14.09a.37.37,0,0,0,.28.42s0,.23,0,.23.23-.14.32-.19.23-.5.23-.59a1.59,1.59,0,0,1,.33-.46c.13,0,.22-.19.22-.28a4.78,4.78,0,0,1,.78-1.33c-.09,0-.27,0-.27-.18s.23-.37.27-.6a4,4,0,0,1,.65-.59c0-.14,0-.32.22-.32l.23,0,.28-.32s.27,0,.27,0-.09-.09-.13-.09l.23-.33c0-.41.73-.13.82-.45s.46-.55.55-.92l.37-.18.27-.46c.28.09.14-.28.32-.28h.05l.41-.18a.3.3,0,0,1,.28-.23,1,1,0,0,1,.32.09,12,12,0,0,1-1.24.87l0,.23a.15.15,0,0,0,.14.14c.19,0,.32-.23.55-.23h.05c.5-.37,1-.73,1.51-1.15.41.05.5-.41.83-.41h.09c.09,0,.27-.14.27-.27s-.14-.1-.18-.1l-.87.6s-.19-.05-.19-.14.19-.23.28-.32c.05-.27.78-.27.92-.69l.73-.41s.18.09.18,0-.09-.09-.14-.14a.15.15,0,0,1,.14-.13c.09,0,.23.13.28-.05a6.35,6.35,0,0,0,1.56-.69,10.12,10.12,0,0,1,1.23.05,3.12,3.12,0,0,0,.55-.37l-.13,0-.74.13a1.52,1.52,0,0,0-.59-.09.78.78,0,0,0-.55.05c-.23-.19-.55,0-.78.14,0-.1-.09-.37-.19-.37s-.09.09-.13.14c-.19-.14-.37,0-.42.18-.18-.05-.68-.05-.77.18-.1,0-.92-.23-1-.09-.23.19-.32-.32-.46.05l-.64-.23c-.09.18-.55.18-.73.14s-.18.13-.41-.05l-.42.37-.5.09-.28-.09c-.13-.14-.27,0-.32.13-.23-.13-.68.19-.87.33-.73-.28-.5.09-1,.32-.36-.19-.77.23-1,.41l-.37-.18.37-.46.55-.32-.27-.05c-.28,0-.42.28-.65.41-.41,0-.64.23-.91.46l-.37-.09c.18-.23.41-.64.78-.64h.05c.36-.09.73-.51,1-.51h.1c.22-.18.41-.46.73-.46h.09a1,1,0,0,1,.69-.32h.14l.27-.32.23.05.09-.18.32.09,0-.23.14-.05c.22,0,.22.23.32-.23.27.1,1.14-.27,1.46-.41l-.59.23c-.14-.18-.28-.05-.46-.09l-.09-.51h-.09c-.33,0-.55.37-.74.55a6.69,6.69,0,0,1-1,.23c-.14,0-.41.05-.41-.13l0-.19c.23,0,1.61-.23,1.61-.73.09-.23.64-.28.87-.28l.27-.32.23.42H186s0,0,0,0,0,.14,0,.14,0-.09,0-.09l.09-.09Zm-9.9,24.66a.1.1,0,0,0,.09-.09l-.18,0S176.5,47.81,176.55,47.81Zm-.05.83s0,.13.09.13,0-.09,0-.13,0,0-.09,0h-.05Zm.05-2.75a.34.34,0,0,0,.09.18l-.09,1,.23-.27-.09-.18a6.37,6.37,0,0,0,.13-.92s0-.14,0-.14l-.05,0A.28.28,0,0,0,176.55,45.89Zm.87-3.76s0,.23-.09.23-.19-.55-.41-.55a4,4,0,0,1-.33,1l.51,0s0-.22.14-.22,0,.09,0,.13a1.18,1.18,0,0,1-.27.64c0,.19.36.23.45.23l.42-.87-.28-.27a2.78,2.78,0,0,1,.28-.87l.23-.32,0-.32-.32,0C177.74,41.3,177.51,41.72,177.42,42.13Zm-.64,3.16-.09-.37C176.64,45.11,176.55,45.2,176.78,45.29Zm.14,7.43a.74.74,0,0,1,.22.5l0,.18c.09.37.09.78.55.78a.1.1,0,0,0,.09-.09c0-.09-.09-.09-.14-.14a9.93,9.93,0,0,1-.73-2c-.09.05-.14-.09-.14-.18v0l0,.19Zm.22-8.76c0,.09.14.09.19.14v-.05c0-.09-.09-.13-.14-.18Zm1.33-4.58c-.13.09-.5.32-.5.46s.14.18.23.18l.46-.28.18-.5a.65.65,0,0,0,.46-.37l-.32-.36C178.89,38.92,178.57,38.92,178.47,39.38Zm1.1-1.15c-.09,0-.23,0-.23.09a.34.34,0,0,0,.28.32,8.08,8.08,0,0,0,.55-.91l-.32-.09C179.8,37.86,179.62,38,179.57,38.23Zm-.18,1a.17.17,0,0,0,.18.19,1.2,1.2,0,0,0-.13-.46l-.05,0Zm.82-4a.26.26,0,0,1,.28.27c0,.32-.23.32-.28.6a.52.52,0,0,1-.13.36c-.09,0-.19-.18-.32-.18Zm.19,2.29s0,0,0-.09-.09-.1-.18-.1S180.35,37.5,180.4,37.5Zm1.88-10.82c-.05,0-.05,0-.09.05s0,0,0,0S182.23,26.68,182.28,26.68Zm-.05,7c0,.05.05.28.14.28l0-.09.32-.37s0-.18-.05-.18l-.05.18C182.42,33.42,182.23,33.37,182.23,33.69Zm.92-7.47-.78.37.27.09.42-.23a.32.32,0,0,1,.27-.14.27.27,0,0,1,.19.05l.27-.23-.37.14Zm1-.37a.45.45,0,0,1,.23,0l.09-.09a.31.31,0,0,1-.27,0Zm.19,6.19c0,.05,0,.32,0,.32s0-.18,0-.18.27,0,.27,0-.27-.27-.36-.32Zm17.14-4.81-.87.23c-.09.32-.73.32-.78.64l-.83.28c-.09.45-.59.41-.68.73,0-.05.32-.23.32-.09v.09l.5.23.28-.18s.18,0,.18.13-.18.28-.27.32-.78.19-.83.42c-.23,0-.73.18-.82.41a4.76,4.76,0,0,0-1.56.87c-.09.27-1.52,1.24-1.52,1.33-.32,0-.59.37-.73.59-.5.33-1.83,1.61-2.15,1.75-.28,0-.37.59-.74.59h0c-.09.64-1.15,1.15-1.15,1.29a17.17,17.17,0,0,0-2.34,3.07l-.23,0a1.34,1.34,0,0,1-.41.6c0,.14-.14.32-.27.32l-.14.46a3.73,3.73,0,0,0-.69,1c-.09.5-.41.92-.46,1.42l.14.32c-.09.19-.09.55-.32.64l-.28.37.14.41a.26.26,0,0,1,.14.19c0,.32-.46,1.1.14,1.1-.09.41.27.55.27,1a2.76,2.76,0,0,0,.05.64s.23-.23.23-.09l-.05.18.46-.09s-.05.18.05.18.18-.09.23-.13l.13.36.69.1.37-.23a3.64,3.64,0,0,1,1.05.23c0,.09.14.23.23.23s.14-.14.14-.19c.41-.18.82-.41,1.24-.64.22,0,.27-.23.45-.23a3.38,3.38,0,0,1,.69.14l.6-.78.82-.41.42,0a7.12,7.12,0,0,1,1-.73l.36-.09c.28,0,.69-.42.83-.6s.55-.46.73-.59c.23.09,1.52-1.06,1.65-1.15.28.09.55-.51.87-.51h.05s.05-.18.09-.18.14.14.14.18l.32,0,.14-.32c.09,0,.13-.05.13-.14s0-.18.1-.18h0l.37-.32c0-.09.14-.46.27-.46s.1.09.1.09c0,.19-.14.41.09.41h.18l.92-1.19.23-.14v-.09c0-.09-.05-.13-.14-.13l.69-1.29c.09,0,.13,0,.13-.09a.72.72,0,0,0-.13-.32,6.8,6.8,0,0,0,.5-.78c.05-.23.28-.32.32-.55a.91.91,0,0,0,.28-.5c.18,0,.23-.14.23-.28v0a1.17,1.17,0,0,1,.5-.74l.41-.87c.28.09.46-.82.51-1,.41.09.73-2.11.82-2.47.23-1,.55-1.74.78-2.75-.14-.32-.46-1.1-.82-1.1-.14,0-.19.09-.23.18a13.21,13.21,0,0,0-1.24-.73c-.28,0,0,.27-.69-.05l-.09-.32-.14-.05a.27.27,0,0,0-.27.14l-.37-.27-.23.09a1.79,1.79,0,0,0-.69-.05l-.59-.32-.19.14Zm-16.27-1.65.13.05.1-.05a.27.27,0,0,0-.19,0Zm13.06,18.75-.23,0a.71.71,0,0,1-.78.6L197,45c0-.14-.14-.23-.19,0l-.82.59-.09.56.36-.14s.14,0,.14.09-.55.64-.73.64l-.23,0-.73.68c-.05,0-.14,0-.14-.09s.18-.23.27-.27l.14-.37c-.05,0-.09-.23-.18-.23s-.05,0-.05.09l-.82.41c-.05.33-.74.28-.83.6l-.82.28-.19.36c.09,0,.32.23.32.32s0,0-.09,0-.41.09-.5.09-.05.14-.09.14-.1-.19-.23-.19,0,.1,0,.1l.14.09s0,.18-.14.18h0l-.37.05a.25.25,0,0,1-.28.18,1.26,1.26,0,0,1-.41-.09c-.18,0-.23.14-.27.27s.27.23.09.23c-.46,0-.92,0-1.38,0l-.32.05s-.23,0-.23,0,.14,0,.14,0a2.17,2.17,0,0,1-.73.18c-.19-.13-.51-.41-.74-.41,0,0-.09,0-.09,0l-.41.32c.18,0,.27,0,.27.18s0,.32.28.32h0c.1-.69,1.11-.27,1.66-.27a1.16,1.16,0,0,1,.41-.09c.09,0,.14,0,.14.09v0a3,3,0,0,1,1.42,0c0-.19.27-.32.45-.42h.46s.46,0,.46,0-.14-.09-.18-.09l.27-.32c.42,0,.46-.09.74-.37l.55-.14a22.05,22.05,0,0,1,2.2-1.51h.09a2.08,2.08,0,0,0,1-.73c-.27,0,.05-.37.09-.51l1.2-.55a.44.44,0,0,1,.41-.32l.27-.23c.1,0,.19,0,.19-.14a.82.82,0,0,0-.14-.36,3.07,3.07,0,0,0,1.05-.78l-.18,0c-.14,0-.18.14-.37.09,0,.19-.23.33-.32.55C198.6,44.05,198.6,44.33,198.32,44.33ZM187.59,24l0-.23c0-.05-.09-.05-.18-.05-.28,0-.51.28-.69.46l.41-.09C187.46,24.16,187.41,24,187.59,24Zm.88-.69-.14,0c0,.05,0,.19.09.19l.05-.09.13-.14Zm2-.46,0,0c.05,0,.23-.09.23-.18s-.14-.09-.18-.09c-.05.32-.32-.05-.37.32a5.12,5.12,0,0,1-.73.23l.41,0C189.75,22.88,190.3,22.88,190.44,22.83Zm1.37,27.27a.61.61,0,0,0-.23.09c-.09,0-.27,0-.36.05a.53.53,0,0,0-.37.14c-.41-.14-.64-.19-.64.32,0,0,0,.09,0,.09s.6-.18.6.09c0,0-.14,0-.14,0-.27,0-.27.09-.27.37v.09L190,51c-.09,0-.18.41-.18.46s.18.23.37.23a2,2,0,0,0,.73-.19,1,1,0,0,1,.23-.5c.14,0,.55.18.6-.05l.45-.27c-.13,0-.36,0-.36-.18s0-.23.09-.23a.13.13,0,0,0,.14-.14Zm-1.42,7s.05.14.09.14a.1.1,0,0,0,.09-.09l.23-.23-.23.13S190.39,57,190.39,57.07Zm1.15-.23h.13c0-.09,0-.18-.13-.18l0,0S191.49,56.84,191.54,56.84Zm.87-6.83a.35.35,0,0,0-.32.14l.18,0c.09,0,.23,0,.23-.18Zm.59-1.74c.28,0,0,.14-.13.14l-.19-.42c.19.1.32-.09.51-.09h.09C193.23,48.13,193.05,48,193,48.27Zm-.09,7.84c0,.09.05.14.09.14a.1.1,0,1,0,0-.19h-.09Zm.64-7.11s0,.14.1.14.09-.09.09-.14l-.19,0Zm.23-23c.05,0,.1.09.14.09A.1.1,0,0,0,194,26ZM195.2,55.1s0,.14.1.14.09-.1.09-.14l-.19-.05Zm.74-.28H196c0-.09-.14-.18-.18-.22Zm.27-7.28c0,.09.19.09.23.09s.09,0,.09-.05a.58.58,0,0,0-.09-.27C196.35,47.35,196.21,47.44,196.21,47.54Zm1.24-2.16-.18.18c0-.18-.1-.13-.1-.27V45.2a.66.66,0,0,1,.42-.09h.14C197.68,45.2,197.59,45.38,197.45,45.38Zm1.28-.73c0,.09-.09.09-.18.09h-.09l-.37.46s-.27-.05-.27-.14.55-.46.64-.69Zm-.41-16.32c0,.05.14.09.18.09v0c0-.1,0-.19-.13-.19Zm.78,17.1a.66.66,0,0,1-.23.46c.23,0,.46-.33.6-.46.13,0,.18-.14.23-.23A1.42,1.42,0,0,1,199.1,45.43Zm2.29-1.15c-.23,0,0,.37-.32.32,0,.09-.14.09-.23.09l-.18,0c0,.27-.37.5-.55.64s-.46.14-.46.32.18.18.28.18a5.62,5.62,0,0,1,1.37-1.14l.18-.37Zm.19,0,.09-.18.41-.23c0-.32.27,0,.27-.55,0,0,0,0,0,0-.37,0-.51.55-.78.83l-.05.14s0,0,0,0Zm1.28-4.4-.23.18.41-.18c.09-.27.28-.27.32-.59l-.23.32C202.86,39.52,202.9,39.65,202.86,39.88Zm-.18,2.84c0,.05,0,.14.09.14s.09-.09.09-.14a.11.11,0,0,0-.09-.09l-.09,0Zm1-4.21-.22.32-.05.23a.09.09,0,0,0,.09.09c.09,0,.14-.37.23-.37s.05,0,.09,0a4.08,4.08,0,0,0,.32-1.06c-.09,0-.18.51-.18.55A.21.21,0,0,0,203.68,38.51Zm-.18,1.55c.05,0,.09-.09.09-.13a.09.09,0,0,0-.09-.09s0,0-.09,0S203.41,40.06,203.5,40.06Zm1.19.51a.11.11,0,0,0,.09.09c.05,0,.1-.09.1-.14l-.14,0Zm.09-.37s0,.14.1.14.09-.09.09-.14a.11.11,0,0,0-.09-.09l-.1,0Zm.92-11.37.14.05c0,.09-.28.23-.32.37l-.32.18.23-.82Zm.73,9.36-.59.27c.27.14-.55.78-.55,1.19,0,0,0,.23,0,.23s.1-.09.1-.14c.09-.32.41-.45.45-.73.14,0,.23-.23.23-.32a.63.63,0,0,0,.32-.46l.19-.18c0-.09,0-.28.18-.28h0c0-.13,0-.5.23-.5h0a2.07,2.07,0,0,0,0-.23c-.05,0-.1.18-.1.18C206.62,37.13,206.48,38,206.43,38.19Zm-1-3,.18.05,0-.32-.14-.14Zm.87.87-.09-.46C206.16,35.76,206.07,36,206.3,36Zm-.14,1.65s0,.14.09.14.05,0,.05-.09v0s-.09,0-.14,0Zm.05-4.54c0,.09-.05.23,0,.28.05-.19.23-1.15.46-1.19l.09-.46-.32-.37A11.84,11.84,0,0,0,206.21,33.14Zm.82-3.25s.05.14.09.14a.17.17,0,0,0,0-.1Zm.14,4.4-.09-.37C207,34.06,207,34.24,207.17,34.29Zm.09-.55s0,0,0-.05-.09-.13-.18-.13S207.17,33.74,207.26,33.74Zm2.84-.69c0,.09,0,.23.14.23v-.14s0-.27-.09-.27S210.1,33,210.1,33.05Z" transform="translate(-7.84 -9.03)"/><path class="a" d="M248.05,23l-.73.46c0,.32-.46.36-.46.55,0,0,0,.09.09.13a.29.29,0,0,1-.23.19c-.09,0-.09-.14-.09-.19s-.14.05-.14.1a.72.72,0,0,0,.09.27l-.13.37h-.23l-.14.18-.32.14h-.18l-.14.18c-.19,0-.69.09-.69.32-.27,0-1.6.37-1.6.78,0,.09,0,.09.13.09a5.33,5.33,0,0,0,1.79-.73c.05,0,.09-.18.14-.18s0,.18,0,.18.23.18.37.18h.28l0-.32c.09,0,.32,0,.32-.14.19.1.37,0,.37-.18h.69c0-.23,1.79-.64,2-.64s.19,0,.19.14a.89.89,0,0,1-.14.32h-.64l-.28.36-.59.28c-.05,0-.05,0-.09,0-.23,0-.28-.18-.28.23l-.27.46-.42.19a.16.16,0,0,1-.18.18c-.73,0-.09.41-.64.41h-.09a.82.82,0,0,0-.14.46c.23,0,.18.18.46.18a.59.59,0,0,0,.46-.18s.27,0,.27,0a.14.14,0,0,1-.14.13c0,.19.28.19.42.19h.23a1.6,1.6,0,0,0,.41-.37h.46l.5-.37c.18,0,.28-.18.46-.18-.14.5-.14.6-.73.73,0,.37-1.61.87-1.61,1a.65.65,0,0,1-.64.55l-1.28,1c-.55,0-1.33.69-1.88.69,0,.19-1.33.83-1.47.83l-.32.36c-.41,0-.18,0-.41.19-.23,0-.33-.19-.55-.19l-.37-.18c-.05,0-.14,0-.14,0s.64.32.73.36-.09.28-.22.28-.78.87-.92.87,0-.09,0-.14a.61.61,0,0,0-.5-.18c-.18.27-.73.41-.73.5,0,.28-.23.23-.51.28l-.36.36c0,.1-.05.1-.14.1s-.41-.1-.41.09l-.14.36c.23,0,0,.14-.09.19l-.28-.32-.05.18c0,.09.1.14.19.14l0,.5.28-.14a.3.3,0,0,0,.32-.18c.14,0,.32,0,.37-.18a1,1,0,0,1,.36-.09c.14,0,.23,0,.23.18l-.27.27c-.09,0-.28,0-.32.14a1,1,0,0,0-.64.37.83.83,0,0,0-.6.37l-.46.18c-.14.18-.69.27-.87.32,0,0-.14,0-.14.05s.14.18.23.22a3.46,3.46,0,0,1-1.19.46s0,.09-.05.09-.18-.09-.23-.13l-.32.13c.32.78-.59.28-.59.83a1.34,1.34,0,0,0-.6.73h-.14c-.13,0-.13-.09-.13-.23a.76.76,0,0,0-.28-.09s-.09,0-.09.14-.6.37-.92.37l-.13.32c.27,0,.18.23,0,.27l-.78.28a6.34,6.34,0,0,0,.73,2.06.25.25,0,0,1,.28.27v.1a5.67,5.67,0,0,1,1.19,2l.36.28c0,.09,0,.27.14.32a1,1,0,0,0,.37.64c0,.14,0,.28.18.32.09.37.51.78.51,1.15a1.35,1.35,0,0,0,.45.55l.28.69c.23,0,.41.55.46.73.23,0,.32.18.5.18,0,.14-.09.51.14.51v.45a2.86,2.86,0,0,0,.73.78c0,.14.05.33.19.37s0,.32.18.32l-.18.18c0,.19.18.1.18.28a16.14,16.14,0,0,0,1.51,1.56v.46a6.29,6.29,0,0,0,.73.73c.42,0,.74.73.88,1.06,0,0,.09,0,.09,0a.53.53,0,0,1-.14.28c.37,0,.73.68.83,1,.36.19.73.23.73.74.32,0,.32,0,.32.32a8.4,8.4,0,0,0,1,.73.19.19,0,0,1,0,.09c0,.09-.55.09-.64.09l-.41-.18a.58.58,0,0,1-.46-.18l-.41-.18L240,58.9c-.28,0-.78-.22-.78-.55H239c-.23-.41-.78-.78-1.05-1.23-.32,0-.46-.46-.83-.46a4.94,4.94,0,0,1-.92-1.06,2.07,2.07,0,0,1-.82-.73l-.09.18.14.55s.18,0,.18,0-.18.14-.28.14a3.85,3.85,0,0,0-.87-1.1.1.1,0,0,0-.09.09.91.91,0,0,0,.19.46l.36.18c0,.6.41.69.87,1.06.41,0,.41.64.83.64l.69.73c0,.27.45.6.68.73,0,.23.55.46.74.55l.27.28c.18,0,.32.09.32.27v.09a10.62,10.62,0,0,1,2.16,1.84c-.37,0-.55-.32-.74-.55a.72.72,0,0,1-.5-.18c0,.32-.14.13-.23,0a7.27,7.27,0,0,1-2.52-.92.54.54,0,0,1-.09.36c-.19,0-.51-.13-.51-.32s.09-.27.19-.27,0,0,0,.09l.19,0-.19-.28c-.09.14-.36.32-.36,0l-.14.09V60c.23.23.91,1.1,1.33,1.1-.14.5.41.23.41.5s.69.55.87.55a8.3,8.3,0,0,1,.69.55c.46,0,.27.32,1.19.32l.14.14c.13,0,.23.05.23.18s0,.19.13.19a1.63,1.63,0,0,1,.74.5c.13,0,.41.09.41.28s-.23.09-.28.09c-.27,0-.73-.18-1.19-.18,0-.14-.13-.19-.27-.19-.6,0-1.19-.5-1.79-.5,0-.09,0-.19-.14-.19s-.18,0-.18-.18c-.64,0-1.42-.69-2.15-.82,0-.1,0-.19-.14-.19s-.19,0-.19-.13a9.57,9.57,0,0,1-1.69-1.29c-.32,0-2.52-2-2.71-2a3.66,3.66,0,0,0-1.42-1.1c0-.09,0-.14-.13-.14s-.23,0-.23-.18a5.35,5.35,0,0,1-1.06-1c-.36,0-.41-.69-.82-.69,0-.68-1.19-.64-1.19-1.23-.33-.46-.6-.92-.88-1.38-.13,0-.27-.05-.27-.18v-.09a4,4,0,0,1-.92-1l0-.41-.28-.1a3.58,3.58,0,0,0-1.05-1.42c-.09,0-.23,0-.23-.18l0-.18c-.32,0-.27-.69-.55-.69l-.27-.37.18-.18c-.55.14-.36-.51-.36-.83-.23,0-.33-.18-.55-.18,0,.32-.33.55-.33.87s-.45.32-.45.55c0,0,0,.09.09.14l-.51.73c-.27.18,0,.64-.32.78l-.18.32c0,.18-.14.23-.14.41l-.18.33c0,.41-.37.45-.37.82,0,.14,0,.32-.18.37,0,.32-.18.55-.18.91l-.19.14a8.13,8.13,0,0,0-1,2.25c.41,0-.23.82-.32,1s0,.18-.09.18a.46.46,0,0,1-.32-.18,1.54,1.54,0,0,0-.46.87c-.09,0-.19,0-.19.13s0,.19-.13.19h-.23l-.14-.19c.23,0,.37-.64.41-.82h.09s-.32-.14-.36-.14l-.32.46a1.52,1.52,0,0,1-.42.87c-.09,0-.13,0-.13.09s0,.28-.14.28-.23.23-.32.23-.09-.09-.09-.14c0-.32.18-.64.18-1,.09,0,.32-.05.32-.19.18,0,.23-.23.23-.36V57a.22.22,0,0,0,.23-.23v-.09l.27-.41.05-.46.32-.42-.46-.13a3,3,0,0,0-.41.87c.27,0,.09.23,0,.32l-.18.37-.37.18-.37.82a.3.3,0,0,1-.32.37l-.36.18a2.94,2.94,0,0,0-.1.88h-.36c0-.51-.37.27-.42.36s-.13,0-.13.09.09.23-.14.23l-.18.32-.37.05.18-.41c0-.23.05-.83.37-.83,0-.27-.09-1,.18-1.19a6.45,6.45,0,0,1,.42-1.93c-.23,0,0-.18.09-.22a8.38,8.38,0,0,0,.32-.92,2.47,2.47,0,0,0,0-.6s-.14-.18-.18-.18-.09.14-.09.18c.41,0,0,.19-.14.19s-.23,0-.23-.14.23-.46.37-.6,0-.27-.09-.27-.28.32-.28.46c-.18.13-.5.36-.5.64,0,.09-.46,1.46-.69,1.46s-.18,0-.18.14,0,.23-.14.23c0,.23-.32,1-.69,1,.05-.18.32-1.38.09-1.38-.41,0-.41.78-.41,1.06-.28.14-.18.59-.18.82l-.19.14-.18.32c0,.42-.46.83-.69,1.15,0,.41-.37.64-.37,1.05a7.55,7.55,0,0,0-.73,1.65h0c-.28,0-.23-.36-.28-.36s-.18.32-.18.36c-.41,0-.09.37-.46.37-.18,0-.18-.28-.18-.41,0-.42.18-.55.18-1l.18-.18a.88.88,0,0,1,.14-.46c0-.14-.14-.83.18-.83a20.06,20.06,0,0,1,.55-2,.67.67,0,0,0,.19-.5c-.46-.23,0-.59,0-.78l.13-.23a6.84,6.84,0,0,1,.05-1c.09,0,.14,0,.14-.13a.54.54,0,0,0-.19-.37c0-.28.32-.6.32-.87l.37-.18.19-.37c0-.51.18-.92.18-1.33-.28,0-.28-.6.09-.6.69,0,.6-1,.6-1.51l.18-.18a.26.26,0,0,1,.23-.28h0a3.26,3.26,0,0,1,.37-1.42c.23,0,.32-.46.37-.64a1.56,1.56,0,0,0,.27-.73c0-.1,0-.14-.09-.14-.55,0-1,.55-1.51.55l-.41.32h-.65l-.23-.41.28-.28a.64.64,0,0,0,.64-.59l.69-.55a.59.59,0,0,1-.18-.46l-.37-.28c0-.46.92-1,1.19-1.14l.18-.42.37-.13.64-.69c0-.6.1-.37.37-.73.55.32.14-.74.46-.74h0c0-.23-.18-.27-.18-.5a.63.63,0,0,0,.37-.46c.32,0,.55-.18.87-.18a1,1,0,0,1,.64-.37l.18-.41a.13.13,0,0,1,.14-.14c.37,0,.23-.18.23-.55l.18-.18c0-.14,0-.42.19-.51a10.89,10.89,0,0,1,.68-1.56l.14-.59.23-.23c0-.18.09-.32.28-.32h0c0-.19.09-1.52.41-1.52.55-1.28,1.43-2.84,1.43-4.3l.36-.23.28-.42c.09,0,.13-.09.13-.18l0-.32c.18.09.32,0,.32-.18l-.14-.37a1.14,1.14,0,0,0,.32-.37c0-.23.19-.13.19-.36a.76.76,0,0,0,.13-.51l.32-.18.19-.37.36-.32.05-.46.28-.36c0-.37.55-.42.55-.78.22-.19.09-.74.36-.78l.19-.32.22.18.19-.18,0-.19-.18.19a.13.13,0,0,1-.14-.14c0-.14.28-.46.37-.55a.13.13,0,0,1,.14-.14c.13,0,.18,0,.18-.18l.18-.37.33-.09.5.09c0-.32,0-.32.32-.32l.23-.55.37-.23a1,1,0,0,1,.5-.69c0-.41.27-.32.46-.59l.87.5v-.68l.5.27c0,.23-.18.23-.18.46l.37.23.36-.28c0-.36.23-.5.51-.68,0-.05,0-.19.09-.19s.18.09.27.19a.32.32,0,0,0,.19.32c-.28,0-.14.59-.09.73H230l.13.14c.51,0,.74.64,1.1.64,0,0,0,0,0-.09l.73.46a8.81,8.81,0,0,0-.36,1.88c0,.27.46.36.69.41a2,2,0,0,0-.33.87.61.61,0,0,0-.18.46c-.14,0-.18.13-.18.27v.14a5.46,5.46,0,0,0-.51,1.47c.32,0,0,.23,0,.32l-.46.91c0,.14-.14.19-.23.19l-.18.46.18.36c0,.46-.64.69-.64,1.06a.88.88,0,0,1,.14.45s-.14,0-.14.1.14.09.18.09a.13.13,0,0,0,.14-.14,9,9,0,0,0,1.56-.69c.09,0,.23,0,.23-.13v-.05c.13,0,.32-.05.36-.18s.28,0,.28-.14l.41-.14c.18-.18.5-.5.78-.5s.64-.87,1.1-.87c.09,0,.09.09.09.13a.31.31,0,0,0,.23.19c.09,0,.09-.14.09-.19.23,0,.37-.18.64-.18.42-.6,1.1-.87,1.52-1.42h.41s.09-.18.14-.18,0,.18,0,.18a19.86,19.86,0,0,1,2.07-1l.68-.37c0-.05.09-.18.14-.18s0,.18,0,.18c.36,0,.36,0,.36-.37.23,0,.14-.18.37-.18l.32.37,1.24-.69c0-.14.18-.18.27-.18s.6-.37.69-.37l.37-.32a36.06,36.06,0,0,0,4.54-1.51.61.61,0,0,1,.5-.19,22,22,0,0,0,3.07-1.23,1.27,1.27,0,0,1,.41,0c0,.09-.23.18-.32.18,0,.42-.46.51-.78.51l-.18.18c-.23,0-.14.18-.37.18l-.68.33c-.37,0-.92.55-.92.55l-.6.27c-.41,0-.36.55-.68.55C248.56,22.23,248.1,22.92,248.05,23ZM208.13,61.38c0,.09,0,.23.18.23l-.18-.32Zm5.68-2.66v-.37h-.37C213.44,58.72,213.44,58.72,213.81,58.72Zm.09-.5c.09,0,.09-.1.09-.14a.09.09,0,0,0-.09-.09s0,0-.09,0S213.86,58.22,213.9,58.22Zm.74-6c0,.18.23.18.32.18,0-.23.18-.32.18-.55l-.27-.32Zm.5-1.29.05.42.32-.19c0-.23.18-.32.18-.55a.48.48,0,0,0-.37-.41C215.32,50.42,215.14,50.61,215.14,50.88Zm1.33-3.66c.09,0,.09-.1.09-.14l-.18,0S216.42,47.22,216.47,47.22Zm-.09,1c0,.05.13.46.18.46v-.09c0-.14-.05-.41.18-.41v-.32l-.18-.19C216.56,47.9,216.38,48,216.38,48.22Zm.36,8.21c0,.09,0,.23.19.23l-.19-.32Zm.28-1.88c.09,0,.09-.09.09-.14l-.18,0S217,54.55,217,54.55Zm.6,3.12h-.19c-.27,0-.32-.1-.32-.37C217.34,57.3,217.62,57.39,217.62,57.67Zm-.19-3.53v-.09l-.18-.37A1.58,1.58,0,0,0,217.43,54.14Zm0,2.29c0,.14,0,.23.19.23l-.19-.32Zm.83-3,.18,0v-.37l-.18-.09Zm.32-.73s0,0,0-.1,0-.09-.13-.09h-.05C218.44,52.62,218.49,52.72,218.58,52.72Zm0-2.16c0,.09,0,.18.14.18s-.09-.27-.14-.27Zm.14,2h.14c.18,0,.18-.14.18-.27s.23-.23.23-.37a.1.1,0,0,0-.09-.09l-.46.05Zm0,.69c0,.09.09.14.18.14l-.18-.32Zm.78-4.86a.09.09,0,0,0,0-.18.19.19,0,0,1-.09,0C219.45,48.27,219.49,48.36,219.54,48.36Zm.18-.5c.1,0,.1-.09.1-.14l-.19,0S219.68,47.86,219.72,47.86Zm.1,1c0,.05.13.09.18.09,0-.23.23,0,.32,0,.37,0,.14-.69.5-.69l.32-.73c.14-.09.33-.28,0-.28v-.46l.19-.36c0-.05,0-.23-.09-.23s-.1.18-.1.23a.52.52,0,0,0-.13.36c0,.46-1,1.24-1,2C220,48.87,219.82,48.87,219.82,48.91Zm.27,1.06c.09,0,.09-.1.09-.14l-.18,0S220,50,220.09,50Zm1.6-3.95-.36,0C221.33,46.16,221.6,46.07,221.69,46Zm1.84,2.71c.09,0,.09-.09.09-.14l-.18-.05C223.44,48.59,223.48,48.73,223.53,48.73Zm.73,1.05-.18-.36c-.23,0,0-.37-.28-.37l.14.37Zm.19.19s-.19,0-.19.09.14.18.19.23.18,0,.18.13,0,.19.18.19Zm.27-28.52c.09,0,.09-.09.09-.13a.09.09,0,0,0-.09-.09c-.05,0-.05,0-.09,0S224.67,21.45,224.72,21.45Zm1.42,24.34c.05,0,.05,0,.05-.09a.11.11,0,0,0-.1-.09h0S226.05,45.79,226.14,45.79Zm1.33-14.07c.05,0,.05,0,.05-.09s-.05-.09-.14-.09h0C227.33,31.63,227.38,31.72,227.47,31.72Zm.18-.32s0,0,0-.09,0-.09-.14-.09h0C227.52,31.31,227.56,31.4,227.65,31.4Zm.92-.78-.28,0a8.11,8.11,0,0,0-.27.78s0,.13,0,.13a6.12,6.12,0,0,0,.87-.78s0-.45-.09-.45S228.62,30.53,228.57,30.62Zm1.24,13s0,.19.09.19.18-.14.23-.19l-.18-.32-.23,0-.1-.19-.36-.13s.32-.37.09-.37c-.09-.27-.18-1.24-.64-1.24-.09,0-.14.14-.14.23l.18.19c0,.09,0,.09-.09.09s-.27,0-.27.18.13.73.5.73c0,.19.05.32.23.32,0,.14.18.19.32.19h.18Zm-1.24-13.7s.05,0,.09,0c.19,0,.32.14.41.14s.05-.32.05-.36a1,1,0,0,0,.32-.55c0-.05,0-.05-.09-.05l-.23-.32c-.09,0-.23,0-.23.14l.05.36C228.8,29.43,228.57,29.66,228.57,29.89Zm.37,1.69c0,.05.13.1.18.1l.18-.32,0-.19c-.14,0-.14.28-.14.37S228.94,31.54,228.94,31.58Zm.32-.91c0-.05,0-.19-.14-.19v.05C229.12,30.67,229.12,30.67,229.26,30.67Zm.46.18s0,.14,0,.14.05-.09.05-.14a.22.22,0,0,0,.23-.23s0-.14,0-.14,0,.19,0,.19S229.72,30.71,229.72,30.85Zm.32,8.44c.09,0,.09-.1.09-.14a.1.1,0,0,0-.09-.09s0,0-.09,0S230,39.29,230,39.29Zm2.11-1.7c-.1,0-.1-.14-.1-.18s-.18-.14-.27-.14-.09,0-.09.09l-.28.37c-.09-.14-.27-.28-.27,0l-.51.18-.36.46c0,.18.27.18.36.18s0-.18.09-.18.1.09.1.18a6.83,6.83,0,0,0,2.38-1.14c.05,0,.23,0,.23,0s-.41-.23-.51-.27C232.65,37.22,232.47,37.59,232.15,37.59Zm-1.79,6c.09,0,.09-.09.09-.14a.11.11,0,0,0-.09-.09c-.05,0-.05.05-.09.05S230.31,43.64,230.36,43.64Zm0,5.27c.09,0,.09-.09.09-.14l-.18,0S230.31,48.91,230.36,48.91Zm.18-4.95c.09,0,.09-.09.09-.14l-.18,0S230.5,44,230.54,44Zm.09-19.53c0,.14.05.23.19.23l-.19-.32Zm.19,19.85.09,0h0l-.13-.09s-.19,0-.19,0Zm0,5.09h0c0-.09,0-.09-.14-.09h-.05C230.63,49.37,230.68,49.37,230.77,49.37Zm0,.87.41.23c.23.37,1,1.33,1.56,1.33.09,0,.13,0,.13-.14l-.54-.23-.14-.5s-.09.41-.19.41V51.2a.49.49,0,0,0-.18-.41l.18-.18-.18.09c-.09-.09-.73-.55-.73-.69s0,0,.09,0a1,1,0,0,0,0-.19s0,.19,0,.19C230.86,50,230.82,49.92,230.82,50.24Zm.22-5.45c.1,0,.1-.1.1-.14l-.19,0S231,44.79,231,44.79Zm.6.77h.05c0-.09-.09-.13-.19-.13S231.55,45.56,231.64,45.56Zm.05,9.72a.2.2,0,0,0,.18.19l.18,0a1.92,1.92,0,0,1,.33.69h.36c0-.37-.55-.51-.55-.83l-.69-.36Zm.09-25.3c.09,0,.09-.09.09-.14l-.18,0S231.73,30,231.78,30Zm-.09,21.68c0,.14.09.14.18.14l-.18-.32ZM232.1,45s.05,0,.09,0,0-.18.09-.18.28.64.28.69S232.1,45.11,232.1,45Zm1.15,1.15c-.1.13-.1.36.13.36.19.23,1,1.19,1,1.61,0,0,0,.09-.09.09l-.41,0a2.8,2.8,0,0,1-.32-1.1,1,1,0,0,1-.46-.69c-.14-.22-.37-.41-.37-.73C233.06,45.61,233,46,233.25,46.12ZM233,56.52c.09,0,.09-.09.09-.14a.11.11,0,0,0-.09-.09c-.05,0-.05.05-.1.05S233,56.52,233,56.52Zm.36-2.93.51,0-.32-.27c0-.14-.14-.19-.23-.19l-.23,0Zm.09,3.85c.1,0,.1-.37.1-.42l-.23-.22C233.38,57,233.34,57.25,233.47,57.44Zm-.09-20.72c0,.14.05.18.19.18l-.19-.36Zm.51-.55c-.09.09-.19.18-.19.27s.14.1.19.1h.69l.68-.37c0-.05,0-.19.09-.19s.05.42.14.42.14-.19.18-.23l.65-.37a1.86,1.86,0,0,1-.28-.09c0-.05.14-.05.14-.05l-.28-.36c-.23,0-.23.18-.45.18A3.29,3.29,0,0,1,233.89,36.17Zm0,21.82.36-.05-.36-.27Zm.64-.14c.05,0,.23-.05.23-.14s0,0-.09,0l-.55-.55.13.18C234.25,57.44,234.44,57.85,234.53,57.85Zm-.28-22.23c0,.18.14.18.33.18l-.1-.32-.23-.18Zm.51,13.61-.18-.5h.18c.23,0,.18.14.18.32l.37.37c.27,0,.23.36.5.36v.32l-.36-.09-.19-.27c0-.05,0-.14-.09-.14s-.18.14-.23.18C234.94,49.6,235,49.23,234.76,49.23Zm.5,9.67a.19.19,0,0,0-.18-.18C235.08,58.86,235.12,58.9,235.26,58.9Zm.19-8v-.41l.27.09a.77.77,0,0,1,.28.5s.18,0,.18.09-.23.28-.37.28C235.81,51.25,235.77,50.93,235.45,50.93Zm.36,8.48.09-.18-.27-.33s-.18.05-.18.1.18,0,.18,0Zm2-29.11c-.6.05-.32.37-.69.37a2.68,2.68,0,0,0-1.33,1l.64-.19.46-.46c.46,0,.46-.36.78-.36A.32.32,0,0,1,237.83,30.3Zm-1.42,28.56s0,0,0,0l-.13-.09C236.32,58.77,236.36,58.86,236.41,58.86Zm.27-6.69c-.23,0-.23-.19-.23-.37.23,0,.51.14.51.37Zm.65.36-.23.19-.14-.55ZM238,33.42a.4.4,0,0,0,.23-.09.11.11,0,0,0-.1-.1c-.09,0-.18,0-.22.05S237.92,33.42,238,33.42Zm.13-3.26c.1,0,.1-.09.1-.13L238,30C238,30,238.06,30.16,238.1,30.16Zm1.29,4.22a.3.3,0,0,1-.28.28,1.32,1.32,0,0,1-.46.45h-.36c-.14,0-.28,0-.28-.13v-.19h.51l.23-.32c.18,0,.32-.18.36-.36Zm-1-4.58s0,.18.09.18c.28,0,.32-.32.73-.32,0-.05-.13-.23-.18-.23s-.09.18-.09.23C238.7,29.66,238.56,29.8,238.38,29.8Zm.14.46h0c0-.1,0-.1-.14-.1h0C238.38,30.26,238.42,30.26,238.52,30.26Zm.64,31,.41.55a4.78,4.78,0,0,0-1-.55l-.14-.36C238.7,60.88,238.84,61.24,239.16,61.24Zm-.32-31.08c.09,0,.09-.09.09-.13l-.18-.05C238.75,30,238.79,30.16,238.84,30.16Zm.36-.18c.05,0,.05-.09.05-.14l-.14,0S239.11,30,239.2,30Zm.33,3.25a0,0,0,0,0,0,0,.09.09,0,0,0-.09-.09h0S239.48,33.23,239.53,33.23Zm.27-3.89c.09,0,.09-.09.09-.14a.1.1,0,0,0-.09-.09c-.05,0-.05.05-.09.05S239.75,29.34,239.8,29.34Zm0,3.57c.09,0,.09-.09.09-.13l-.18-.05C239.71,32.78,239.75,32.91,239.8,32.91Zm0,27.83a.1.1,0,0,0,.09-.09l-.18,0S239.75,60.74,239.8,60.74Zm1.47-27.32-.14.37-.32.27a3.06,3.06,0,0,0-.92.14c0-.37.51-.46.78-.6l.32-.37C241.08,33.23,241.27,33.28,241.27,33.42ZM240.72,29c0,.05,0,.09,0,.09s.05-.13.05-.13a.73.73,0,0,0,.59-.28c.14,0,.37,0,.42-.18s0-.19-.09-.19,0,.14,0,.19A3.9,3.9,0,0,0,240.72,29Zm.41-.5.09-.19c.23,0,.37-.13.6-.13a.19.19,0,0,0,0-.14c0-.14-.23-.18-.32-.23l-.41.5Zm1-.51c0-.09,0-.18-.14-.18S242,28,242.14,28Zm0,.37s0-.09,0-.14l-.14,0S242,28.33,242.09,28.33Zm.37-.55s0-.05,0-.09,0-.09-.13-.09h-.05C242.32,27.69,242.37,27.78,242.46,27.78Zm.27-.18c.05,0,.05-.05.05-.09s0-.1-.05-.1-.09.05-.09.05S242.69,27.6,242.73,27.6Zm.92,0,.14-.19s.23,0,.23-.09-.14-.09-.19-.09S243.7,27.46,243.65,27.6ZM245,26.54l-.23.14c-.09,0-.5,0-.5.09s.41.28.5.28c0-.42.69-.28.69-.37s-.23-.27-.32-.32Zm1.24-1.92h0c0-.09,0-.09-.13-.09h0C246.08,24.62,246.13,24.62,246.22,24.62Zm1.33,0v.19a4,4,0,0,0-.74.18C246.81,24.71,247.32,24.66,247.55,24.66Z" transform="translate(-7.84 -9.03)"/></svg>